<svg width="23" height="20" viewBox="0 0 23 20" fill="none" xmlns="http://www.w3.org/2000/svg">
<path d="M9.59993 16.0564C8.62963 16.0564 7.84357 16.7169 7.84357 17.5316C7.84357 18.3464 8.62963 19.007 9.59993 19.007C10.5693 19.007 11.3554 18.3464 11.3554 17.5316C11.3555 16.7169 10.5693 16.0564 9.59993 16.0564Z" fill="black"/>
<path d="M16.0511 16.0564C15.0813 16.0564 14.2951 16.7169 14.2951 17.5316C14.2951 18.3464 15.0813 19.007 16.0511 19.007C17.0209 19.007 17.8065 18.3464 17.8065 17.5316C17.8065 16.7169 17.0209 16.0564 16.0511 16.0564Z" fill="black"/>
<path d="M22.3452 6.08997C22.1816 5.88979 21.9109 5.77 21.6213 5.77H18.4998C18.4817 5.73611 18.463 5.70231 18.4423 5.66903C18.0868 5.09644 17.4191 4.72144 16.6654 4.6591V2.88915C16.6654 1.84362 15.6532 0.993011 14.409 0.993011H12.8295C11.5854 0.993011 10.5732 1.84362 10.5732 2.88915V4.65905C9.81942 4.72139 9.1517 5.0964 8.79627 5.66898C8.77562 5.70226 8.75689 5.73606 8.73873 5.76995H5.92442L5.02204 3.83343C4.90476 3.58252 4.69458 3.37039 4.42224 3.22865L2.76262 2.36491C2.06715 2.0028 1.1532 2.18303 0.722237 2.76794C0.291326 3.35276 0.506076 4.12055 1.20183 4.48271L2.44148 5.12797L6.72018 14.4447C6.85066 14.7296 7.17664 14.9175 7.53992 14.9175H18.1105C18.4737 14.9175 18.7998 14.7296 18.9299 14.4447L22.4412 6.77235C22.5449 6.54566 22.5091 6.2903 22.3452 6.08997ZM17.1358 6.95286L14.3133 10.3529C14.155 10.5435 13.8959 10.6572 13.6193 10.6572C13.3427 10.6572 13.0835 10.5436 12.9253 10.3529L10.1028 6.95281C9.92242 6.73551 9.90076 6.45204 10.0466 6.21711C10.1924 5.98223 10.4815 5.8349 10.7968 5.8349H11.9834V2.88915C11.9834 2.49646 12.3622 2.1781 12.8295 2.1781H14.409C14.8763 2.1781 15.2551 2.49646 15.2551 2.88915V5.83499H16.4418C16.757 5.83499 17.0461 5.98227 17.1919 6.2172C17.3378 6.45204 17.3161 6.73556 17.1358 6.95286Z" fill="black"/>
</svg>
