<svg width="18" height="16" viewBox="0 0 18 16" fill="none" xmlns="http://www.w3.org/2000/svg">
<path d="M8.99963 0C4.30407 0 0.499634 3.58065 0.499634 8C0.499634 12.4194 4.30407 16 8.99963 16C13.6952 16 17.4996 12.4194 17.4996 8C17.4996 3.58065 13.6952 0 8.99963 0ZM8.99963 14.4516C5.21234 14.4516 2.1448 11.5645 2.1448 8C2.1448 4.43548 5.21234 1.54839 8.99963 1.54839C12.7869 1.54839 15.8545 4.43548 15.8545 8C15.8545 11.5645 12.7869 14.4516 8.99963 14.4516ZM12.4887 5.99355L10.3569 8L12.4887 10.0065C12.6498 10.1581 12.6498 10.4032 12.4887 10.5548L11.7142 11.2839C11.5531 11.4355 11.2926 11.4355 11.1315 11.2839L8.99963 9.27742L6.86778 11.2839C6.70669 11.4355 6.44621 11.4355 6.28512 11.2839L5.51052 10.5548C5.34943 10.4032 5.34943 10.1581 5.51052 10.0065L7.64238 8L5.51052 5.99355C5.34943 5.84194 5.34943 5.59677 5.51052 5.44516L6.28512 4.71613C6.44621 4.56452 6.70669 4.56452 6.86778 4.71613L8.99963 6.72258L11.1315 4.71613C11.2926 4.56452 11.5531 4.56452 11.7142 4.71613L12.4887 5.44516C12.6498 5.59677 12.6498 5.84194 12.4887 5.99355Z" fill="#EB853E"/>
</svg>
