<svg width="23" height="22" viewBox="0 0 23 22" fill="none" xmlns="http://www.w3.org/2000/svg">
<g clip-path="url(#clip0_196_67543)">
<path d="M11.4996 22C17.5754 22 22.4996 17.0758 22.4996 11C22.4996 4.92422 17.5754 0 11.4996 0C5.42385 0 0.499634 4.92422 0.499634 11C0.499634 17.0758 5.42385 22 11.4996 22ZM10.4684 14.7812V12.0312H7.71838C7.1469 12.0312 6.68713 11.5715 6.68713 11C6.68713 10.4285 7.1469 9.96875 7.71838 9.96875H10.4684V7.21875C10.4684 6.64727 10.9281 6.1875 11.4996 6.1875C12.0711 6.1875 12.5309 6.64727 12.5309 7.21875V9.96875H15.2809C15.8524 9.96875 16.3121 10.4285 16.3121 11C16.3121 11.5715 15.8524 12.0312 15.2809 12.0312H12.5309V14.7812C12.5309 15.3527 12.0711 15.8125 11.4996 15.8125C10.9281 15.8125 10.4684 15.3527 10.4684 14.7812Z" fill="black"/>
</g>
<defs>
<clipPath id="clip0_196_67543">
<rect width="22" height="22" fill="white" transform="translate(0.499634)"/>
</clipPath>
</defs>
</svg>
