<svg width="23" height="22" viewBox="0 0 23 22" fill="none" xmlns="http://www.w3.org/2000/svg">
<g clip-path="url(#clip0_24_42)">
<path d="M19.2782 3.57535C17.2005 1.59222 14.4382 0.5 11.5 0.5C8.5618 0.5 5.79946 1.59222 3.7218 3.57535C1.64423 5.55858 0.5 8.19535 0.5 11C0.5 13.8046 1.64423 16.4414 3.7218 18.4246C5.79946 20.4078 8.5618 21.5 11.5 21.5C12.9847 21.5 14.4254 21.2223 15.7819 20.6746L15.2517 19.4782C14.0639 19.9579 12.8016 20.201 11.5 20.201C6.18494 20.201 1.86082 16.0735 1.86082 11C1.86082 5.92653 6.18494 1.79897 11.5 1.79897C16.8151 1.79897 21.1392 5.92653 21.1392 11C21.1392 13.2222 19.7088 14.2344 18.3797 14.2344C17.0507 14.2344 15.6203 13.2223 15.6203 11C15.6203 8.83133 13.7719 7.06703 11.5 7.06703C9.22806 7.06703 7.37974 8.83137 7.37974 11C7.37974 13.1686 9.22806 14.933 11.5 14.933C12.8452 14.933 14.0417 14.3144 14.7942 13.3597C14.9869 13.7311 15.2294 14.067 15.5218 14.3605C16.2754 15.1168 17.2903 15.5333 18.3797 15.5333C19.4691 15.5333 20.4841 15.1168 21.2377 14.3605C22.0635 13.5317 22.5 12.3696 22.5 11C22.5 8.19535 21.3558 5.55858 19.2782 3.57535ZM11.5 13.634C9.97846 13.634 8.74057 12.4524 8.74057 11C8.74057 9.54762 9.97846 8.36599 11.5 8.36599C13.0215 8.36599 14.2594 9.54762 14.2594 11C14.2594 12.4524 13.0215 13.634 11.5 13.634Z" fill="#FCFBFB"/>
</g>
<defs>
<clipPath id="clip0_24_42">
<rect width="22" height="21" fill="white" transform="translate(0.5 0.5)"/>
</clipPath>
</defs>
</svg>
