<svg width="19" height="18" viewBox="0 0 19 18" fill="none" xmlns="http://www.w3.org/2000/svg">
<g clip-path="url(#clip0_81_1578)">
<path d="M18.2184 9C18.2184 4.18359 14.316 0.28125 9.49963 0.28125C4.68323 0.28125 0.780884 4.18359 0.780884 9C0.780884 13.3516 3.9692 16.9587 8.13733 17.6133V11.5204H5.92249V9H8.13733V7.07906C8.13733 4.8941 9.43811 3.68719 11.4304 3.68719C12.3846 3.68719 13.3823 3.85734 13.3823 3.85734V6.00187H12.2826C11.1998 6.00187 10.8619 6.67406 10.8619 7.36348V9H13.28L12.8933 11.5204H10.8619V17.6133C15.0301 16.9587 18.2184 13.3516 18.2184 9Z" fill="black"/>
</g>
<defs>
<clipPath id="clip0_81_1578">
<rect width="18" height="18" fill="white" transform="translate(0.499634)"/>
</clipPath>
</defs>
</svg>
