<svg width="14" height="14" viewBox="0 0 14 14" fill="none" xmlns="http://www.w3.org/2000/svg">
<g clip-path="url(#clip0_225_117437)">
<path d="M7 13.5C10.5902 13.5 13.5 10.5902 13.5 7C13.5 3.40977 10.5902 0.5 7 0.5C3.40977 0.5 0.5 3.40977 0.5 7C0.5 10.5902 3.40977 13.5 7 13.5ZM5.98438 9.03125H6.59375V7.40625H5.98438C5.64668 7.40625 5.375 7.13457 5.375 6.79688C5.375 6.45918 5.64668 6.1875 5.98438 6.1875H7.20312C7.54082 6.1875 7.8125 6.45918 7.8125 6.79688V9.03125H8.01562C8.35332 9.03125 8.625 9.30293 8.625 9.64062C8.625 9.97832 8.35332 10.25 8.01562 10.25H5.98438C5.64668 10.25 5.375 9.97832 5.375 9.64062C5.375 9.30293 5.64668 9.03125 5.98438 9.03125ZM7 5.375C6.55059 5.375 6.1875 5.01191 6.1875 4.5625C6.1875 4.11309 6.55059 3.75 7 3.75C7.44941 3.75 7.8125 4.11309 7.8125 4.5625C7.8125 5.01191 7.44941 5.375 7 5.375Z" fill="#151515"/>
</g>
<defs>
<clipPath id="clip0_225_117437">
<rect width="13" height="13" fill="white" transform="translate(0.5 0.5)"/>
</clipPath>
</defs>
</svg>
