<svg width="15" height="16" viewBox="0 0 15 16" fill="none" xmlns="http://www.w3.org/2000/svg">
<g clip-path="url(#clip0_81_1566)">
<path d="M7.50281 4.63086C5.51531 4.63086 3.91219 6.13379 3.91219 7.99707C3.91219 9.86035 5.51531 11.3633 7.50281 11.3633C9.49031 11.3633 11.0934 9.86035 11.0934 7.99707C11.0934 6.13379 9.49031 4.63086 7.50281 4.63086ZM7.50281 10.1855C6.21844 10.1855 5.16844 9.2041 5.16844 7.99707C5.16844 6.79004 6.21531 5.80859 7.50281 5.80859C8.79031 5.80859 9.83719 6.79004 9.83719 7.99707C9.83719 9.2041 8.78719 10.1855 7.50281 10.1855ZM12.0778 4.49316C12.0778 4.92969 11.7028 5.27832 11.2403 5.27832C10.7747 5.27832 10.4028 4.92676 10.4028 4.49316C10.4028 4.05957 10.7778 3.70801 11.2403 3.70801C11.7028 3.70801 12.0778 4.05957 12.0778 4.49316ZM14.4559 5.29004C14.4028 4.23828 14.1466 3.30664 13.3247 2.53906C12.5059 1.77148 11.5122 1.53125 10.3903 1.47852C9.23406 1.41699 5.76844 1.41699 4.61219 1.47852C3.49344 1.52832 2.49969 1.76855 1.67781 2.53613C0.855939 3.30371 0.602814 4.23535 0.546564 5.28711C0.480939 6.37109 0.480939 9.62012 0.546564 10.7041C0.599689 11.7559 0.855939 12.6875 1.67781 13.4551C2.49969 14.2227 3.49031 14.4629 4.61219 14.5156C5.76844 14.5771 9.23406 14.5771 10.3903 14.5156C11.5122 14.4658 12.5059 14.2256 13.3247 13.4551C14.1434 12.6875 14.3997 11.7559 14.4559 10.7041C14.5216 9.62012 14.5216 6.37402 14.4559 5.29004ZM12.9622 11.8672C12.7184 12.4414 12.2466 12.8838 11.6309 13.1152C10.7091 13.458 8.52156 13.3789 7.50281 13.3789C6.48406 13.3789 4.29344 13.4551 3.37469 13.1152C2.76219 12.8867 2.29031 12.4443 2.04344 11.8672C1.67781 11.0029 1.76219 8.95215 1.76219 7.99707C1.76219 7.04199 1.68094 4.98828 2.04344 4.12695C2.28719 3.55273 2.75906 3.11035 3.37469 2.87891C4.29656 2.53613 6.48406 2.61523 7.50281 2.61523C8.52156 2.61523 10.7122 2.53906 11.6309 2.87891C12.2434 3.10742 12.7153 3.5498 12.9622 4.12695C13.3278 4.99121 13.2434 7.04199 13.2434 7.99707C13.2434 8.95215 13.3278 11.0059 12.9622 11.8672Z" fill="black"/>
</g>
<defs>
<clipPath id="clip0_81_1566">
<rect width="14" height="15" fill="white" transform="translate(0.499634 0.5)"/>
</clipPath>
</defs>
</svg>
