<svg width="13" height="10" viewBox="0 0 13 10" fill="none" xmlns="http://www.w3.org/2000/svg">
<g clip-path="url(#clip0_208_70072)">
<path d="M1.4375 0.9375C1.12578 0.9375 0.875 1.14648 0.875 1.40625V2.34375C0.875 2.60352 1.12578 2.8125 1.4375 2.8125H2.5625C2.87422 2.8125 3.125 2.60352 3.125 2.34375V1.40625C3.125 1.14648 2.87422 0.9375 2.5625 0.9375H1.4375ZM5 1.25C4.58516 1.25 4.25 1.5293 4.25 1.875C4.25 2.2207 4.58516 2.5 5 2.5H11.75C12.1648 2.5 12.5 2.2207 12.5 1.875C12.5 1.5293 12.1648 1.25 11.75 1.25H5ZM5 4.375C4.58516 4.375 4.25 4.6543 4.25 5C4.25 5.3457 4.58516 5.625 5 5.625H11.75C12.1648 5.625 12.5 5.3457 12.5 5C12.5 4.6543 12.1648 4.375 11.75 4.375H5ZM5 7.5C4.58516 7.5 4.25 7.7793 4.25 8.125C4.25 8.4707 4.58516 8.75 5 8.75H11.75C12.1648 8.75 12.5 8.4707 12.5 8.125C12.5 7.7793 12.1648 7.5 11.75 7.5H5ZM0.875 4.53125V5.46875C0.875 5.72852 1.12578 5.9375 1.4375 5.9375H2.5625C2.87422 5.9375 3.125 5.72852 3.125 5.46875V4.53125C3.125 4.27148 2.87422 4.0625 2.5625 4.0625H1.4375C1.12578 4.0625 0.875 4.27148 0.875 4.53125ZM1.4375 7.1875C1.12578 7.1875 0.875 7.39648 0.875 7.65625V8.59375C0.875 8.85352 1.12578 9.0625 1.4375 9.0625H2.5625C2.87422 9.0625 3.125 8.85352 3.125 8.59375V7.65625C3.125 7.39648 2.87422 7.1875 2.5625 7.1875H1.4375Z" fill="#151515"/>
</g>
<defs>
<clipPath id="clip0_208_70072">
<rect width="12" height="10" fill="white" transform="translate(0.5)"/>
</clipPath>
</defs>
</svg>
