<svg width="17" height="16" viewBox="0 0 17 16" fill="none" xmlns="http://www.w3.org/2000/svg">
<path d="M11.5 2.28571H13.5C14.0531 2.28571 14.5 2.79643 14.5 3.42857V12.5714C14.5 13.2036 14.0531 13.7143 13.5 13.7143H11.5C10.9469 13.7143 10.5 14.225 10.5 14.8571C10.5 15.4893 10.9469 16 11.5 16H13.5C15.1562 16 16.5 14.4643 16.5 12.5714V3.42857C16.5 1.53571 15.1562 0 13.5 0H11.5C10.9469 0 10.5 0.510714 10.5 1.14286C10.5 1.775 10.9469 2.28571 11.5 2.28571ZM11.2656 8.62143C11.4156 8.46071 11.5 8.23571 11.5 8C11.5 7.76429 11.4156 7.53929 11.2656 7.37857L6.76562 2.52143C6.54688 2.28571 6.22813 2.22143 5.95312 2.35714C5.67812 2.49286 5.5 2.80357 5.5 3.14286V5.71429H1.5C0.946875 5.71429 0.5 6.225 0.5 6.85714V9.14286C0.5 9.775 0.946875 10.2857 1.5 10.2857H5.5V12.8571C5.5 13.2 5.67812 13.5071 5.95312 13.6429C6.22813 13.7786 6.54688 13.7143 6.76562 13.4786L11.2656 8.62143Z" fill="black"/>
</svg>
