<svg width="17" height="16" viewBox="0 0 17 16" fill="none" xmlns="http://www.w3.org/2000/svg">
<g clip-path="url(#clip0_121_6271)">
<path d="M11.9909 2.15969C12.0424 2.18385 12.094 2.208 12.1423 2.23216L11.6334 3.01718C12.0521 3.00208 12.6479 3.33119 12.8637 3.69653L13.3597 2.9115C13.3983 2.94774 13.4498 2.98397 13.4981 3.00812C13.9168 3.24665 14.4643 3.1138 14.7155 2.72129C14.97 2.32878 14.8283 1.81549 14.4096 1.57998C13.9909 1.34146 13.6882 1.48638 13.3693 1.62829C13.4531 1.30522 13.3178 0.961021 12.8991 0.722495C12.4804 0.483968 11.9329 0.616818 11.6817 1.00933C11.4466 1.4109 11.5722 1.92419 11.9909 2.15969Z" fill="black"/>
<path d="M13.92 13.0051C14.3902 10.8614 13.7429 8.74485 12.3451 7.37408C13.2566 5.80101 12.8959 4.15548 11.8234 3.7207C10.7606 3.25572 9.13418 4.21889 8.58667 5.81611C5.92323 5.77988 2.04883 7.99908 2.16477 13.0051H13.92Z" fill="black"/>
<path d="M0.499634 13.624L1.92314 15.3964H15.0761L16.4996 13.624H0.499634Z" fill="black"/>
</g>
<defs>
<clipPath id="clip0_121_6271">
<rect width="16" height="15" fill="white" transform="translate(0.499634 0.5)"/>
</clipPath>
</defs>
</svg>
