<svg width="19" height="18" viewBox="0 0 19 18" fill="none" xmlns="http://www.w3.org/2000/svg">
<g clip-path="url(#clip0_252_111532)">
<path d="M0.5 3.375C0.5 2.75273 1.07455 2.25 1.78571 2.25H17.2143C17.9254 2.25 18.5 2.75273 18.5 3.375C18.5 3.99727 17.9254 4.5 17.2143 4.5H1.78571C1.07455 4.5 0.5 3.99727 0.5 3.375ZM0.5 9C0.5 8.37773 1.07455 7.875 1.78571 7.875H17.2143C17.9254 7.875 18.5 8.37773 18.5 9C18.5 9.62227 17.9254 10.125 17.2143 10.125H1.78571C1.07455 10.125 0.5 9.62227 0.5 9ZM18.5 14.625C18.5 15.2473 17.9254 15.75 17.2143 15.75H1.78571C1.07455 15.75 0.5 15.2473 0.5 14.625C0.5 14.0027 1.07455 13.5 1.78571 13.5H17.2143C17.9254 13.5 18.5 14.0027 18.5 14.625Z" fill="black"/>
</g>
<defs>
<clipPath id="clip0_252_111532">
<rect width="18" height="18" fill="white" transform="translate(0.5)"/>
</clipPath>
</defs>
</svg>
