<svg width="26" height="28" viewBox="0 0 26 28" fill="none" xmlns="http://www.w3.org/2000/svg">
<path d="M18.362 14.6013C18.5843 14.6013 18.7644 14.3995 18.7644 14.1506V12.6475C20.8703 12.1822 22.0553 10.2676 22.0553 7.2342C22.0553 5.70427 21.7682 4.24696 21.225 3.02C21.1263 2.79698 20.8849 2.70582 20.6857 2.8164C20.4866 2.92697 20.4052 3.1974 20.5039 3.42042C20.9923 4.52362 21.2504 5.84246 21.2504 7.23414C21.2504 11.0557 19.3208 11.8579 17.7021 11.8579C16.0834 11.8579 14.1538 11.0557 14.1538 7.23414C14.1538 5.53309 14.5411 3.94 15.2442 2.7482C15.9135 1.61399 16.7864 0.989348 17.7021 0.989348C18.702 0.989348 19.4368 1.71084 19.877 2.31606C20.0174 2.50905 20.2709 2.53798 20.4432 2.38081C20.6156 2.22353 20.6414 1.93965 20.5011 1.74666C19.7229 0.677084 18.7289 0.088047 17.7021 0.088047C16.5073 0.088047 15.396 0.856348 14.5728 2.25137C13.7836 3.5888 13.3489 5.35848 13.3489 7.23431C13.3489 10.2678 14.5339 12.1822 16.6399 12.6476V18.9256C16.2467 19.1496 15.9631 19.5906 15.9248 20.1091L15.5358 25.3641C15.4857 26.0405 15.6924 26.7148 16.1027 27.2142C16.5132 27.7135 17.0961 27.9999 17.7021 27.9999C18.3081 27.9999 18.8911 27.7136 19.3015 27.2142C19.7119 26.7149 19.9186 26.0406 19.8685 25.3642L19.4795 20.1092C19.4411 19.5907 19.1576 19.1497 18.7643 18.9257V15.6531C18.7643 15.4041 18.5842 15.2024 18.3619 15.2024C18.1396 15.2024 17.9595 15.4041 17.9595 15.6531V18.7679H17.4448V12.7535C17.5294 12.7574 17.6152 12.7595 17.7021 12.7595C17.7891 12.7595 17.8748 12.7574 17.9595 12.7535V14.1505C17.9595 14.3995 18.1397 14.6013 18.362 14.6013ZM18.1784 19.6692C18.4368 19.6692 18.656 19.8951 18.6774 20.1836L19.0664 25.4386C19.0984 25.8708 18.9715 26.2846 18.7093 26.6037C18.4471 26.9228 18.0894 27.0985 17.7021 27.0985C17.3149 27.0985 16.9572 26.9228 16.6949 26.6037C16.4327 26.2846 16.3059 25.8709 16.3379 25.4386L16.7269 20.1836C16.7482 19.8951 16.9674 19.6692 17.2259 19.6692H18.1784Z" fill="black"/>
<path d="M10.5389 0C10.3166 0 10.1364 0.201796 10.1364 0.450733V7.04454C10.1364 7.43331 9.85401 7.74963 9.50694 7.74963C9.15987 7.74963 8.87735 7.43331 8.87735 7.04454V0.450733C8.87735 0.201796 8.69722 0 8.47491 0C8.2526 0 8.07247 0.201796 8.07247 0.450733V7.04454C8.07247 7.43331 7.79005 7.74963 7.44298 7.74963C7.09591 7.74963 6.81349 7.43331 6.81349 7.04454V0.450733C6.81349 0.201796 6.63336 0 6.41105 0C6.18874 0 6.00861 0.201796 6.00861 0.450733V7.04454C6.00861 7.43331 5.72619 7.74963 5.37912 7.74963C5.03205 7.74963 4.74963 7.43331 4.74963 7.04454V0.450733C4.74958 0.201796 4.56946 0 4.34714 0C4.12483 0 3.9447 0.201796 3.9447 0.450733V8.7288C3.9447 9.40195 4.09978 10.066 4.39314 10.6493C4.46701 10.7962 4.60354 10.8788 4.74411 10.8788C4.81101 10.8788 4.87883 10.8601 4.94133 10.8207C5.13493 10.6985 5.20349 10.4237 5.0944 10.2067C4.86882 9.75829 4.74958 9.24718 4.74958 8.72869V8.48758C4.93977 8.59208 5.15334 8.65098 5.37907 8.65098C5.78395 8.65098 6.14997 8.46182 6.411 8.15852C6.67204 8.46176 7.03805 8.65098 7.44293 8.65098C7.84781 8.65098 8.21383 8.46182 8.47486 8.15852C8.73594 8.46176 9.10196 8.65098 9.50684 8.65098C9.73257 8.65098 9.94619 8.59208 10.1363 8.48758V8.72869C10.1363 10.3921 8.92803 11.7454 7.44283 11.7454C6.86198 11.7454 6.30895 11.5417 5.84347 11.1563C5.66467 11.0082 5.41271 11.0506 5.28059 11.2508C5.14846 11.4509 5.18625 11.7332 5.36496 11.8811C5.70036 12.1588 6.07082 12.3636 6.46281 12.4913V18.9254C6.0696 19.1494 5.786 19.5904 5.74767 20.1089L5.35866 25.3639C5.30861 26.0403 5.5153 26.7146 5.9257 27.214C6.33605 27.7133 6.91906 27.9997 7.52501 27.9997C8.13101 27.9997 8.71397 27.7133 9.12442 27.2139C9.53477 26.7146 9.74141 26.0402 9.69136 25.3639L9.3024 20.1088C9.26397 19.5904 8.98043 19.1494 8.58726 18.9254V12.4305C9.95581 11.8983 10.9412 10.4404 10.9412 8.72875V0.450733C10.9413 0.201796 10.7612 0 10.5389 0ZM7.26774 12.6416C7.32589 12.6447 7.38429 12.6469 7.44293 12.6469C7.55748 12.6469 7.67071 12.6403 7.78248 12.6282V18.7677H7.26774V12.6416ZM8.88936 25.4386C8.92134 25.8707 8.79454 26.2845 8.53233 26.6036C8.27003 26.9227 7.91231 27.0984 7.52511 27.0984C7.1379 27.0984 6.78024 26.9227 6.51793 26.6037C6.25563 26.2846 6.12882 25.8708 6.16086 25.4386L6.54987 20.1835C6.57116 19.8951 6.79035 19.6691 7.04884 19.6691H8.00143C8.25982 19.6691 8.47901 19.8951 8.5004 20.1835L8.88936 25.4386Z" fill="black"/>
</svg>
