<svg width="25" height="24" viewBox="0 0 25 24" fill="none" xmlns="http://www.w3.org/2000/svg">
<path d="M24.4235 4.87106C24.3355 4.70884 24.1843 4.61093 24.0219 4.61093H3.70147C3.55781 4.61093 3.4217 4.6878 3.33091 4.82029C3.24012 4.95271 3.20426 5.12676 3.23319 5.2941L5.11857 16.1944C5.16433 16.4587 5.35996 16.6484 5.58686 16.6484H19.8845C20.0724 16.6484 20.2429 16.5175 20.3202 16.3137L24.4576 5.41345C24.5244 5.23747 24.5116 5.03328 24.4235 4.87106ZM19.5757 15.5112H5.9766L5.72082 14.0324H16.1661C16.4301 14.0324 16.6442 13.7777 16.6442 13.4638C16.6442 13.1498 16.4301 12.8952 16.1661 12.8952H5.53451C5.53102 12.8952 5.52767 12.8957 5.52423 12.8958L5.23599 11.2294H15.4852C15.7493 11.2294 15.9633 10.9748 15.9633 10.6608C15.9633 10.3468 15.7493 10.0922 15.4852 10.0922H5.0393L4.72965 8.30188H15.0663C15.3303 8.30188 15.5444 8.04726 15.5444 7.73328C15.5444 7.4193 15.3303 7.16468 15.0663 7.16468H4.53292L4.2879 5.74813H23.2815L19.5757 15.5112Z" fill="#151515"/>
<path d="M3.43273 3.55702C3.69181 3.49635 3.86043 3.19738 3.80942 2.88926L3.48967 0.95869C3.44554 0.69213 3.249 0.5 3.02057 0.5H0.978087C0.71404 0.5 0.5 0.754619 0.5 1.0686C0.5 1.38258 0.71404 1.6372 0.978087 1.6372H2.62749L2.87126 3.10908C2.91616 3.38013 3.11605 3.56788 3.33984 3.56788C3.37048 3.56783 3.40156 3.5643 3.43273 3.55702Z" fill="#151515"/>
<path d="M8.44112 17.8159C7.12347 17.8159 6.05145 19.0909 6.05145 20.658C6.05145 22.2251 7.12347 23.5 8.44112 23.5C9.75883 23.5 10.8308 22.225 10.8308 20.658C10.8308 19.0909 9.75883 17.8159 8.44112 17.8159ZM8.44112 22.3629C7.6507 22.3629 7.00763 21.5981 7.00763 20.658C7.00763 19.718 7.6507 18.9531 8.44112 18.9531C9.23159 18.9531 9.87462 19.718 9.87462 20.658C9.87462 21.5981 9.23159 22.3629 8.44112 22.3629Z" fill="#151515"/>
<path d="M16.9254 17.8159C15.6078 17.8159 14.5358 19.0909 14.5358 20.658C14.5358 22.2251 15.6078 23.5 16.9254 23.5C18.2431 23.5 19.3151 22.225 19.3151 20.658C19.3151 19.0909 18.2431 17.8159 16.9254 17.8159ZM16.9254 22.3629C16.135 22.3629 15.4919 21.5981 15.4919 20.658C15.4919 19.718 16.135 18.9531 16.9254 18.9531C17.7159 18.9531 18.3589 19.718 18.3589 20.658C18.3589 21.5981 17.7159 22.3629 16.9254 22.3629Z" fill="#151515"/>
<path d="M17.3706 8.30187H19.0465C19.3105 8.30187 19.5246 8.04725 19.5246 7.73327C19.5246 7.41929 19.3105 7.16467 19.0465 7.16467H17.3706C17.1066 7.16467 16.8925 7.41929 16.8925 7.73327C16.8925 8.04725 17.1066 8.30187 17.3706 8.30187Z" fill="#151515"/>
</svg>
