<svg width="18" height="16" viewBox="0 0 18 16" fill="none" xmlns="http://www.w3.org/2000/svg">
<path d="M14.2308 6.93269C13.3154 6.61539 13.1846 6.29808 13.1846 5.98077C13.1846 5.66346 13.4462 5.34615 13.7731 5.11539C14.3288 4.71154 14.6231 4.10577 14.6231 3.44231C14.6231 2.17308 13.675 1.07692 12.0077 1.07692C10.4712 1.07692 9.55577 2 9.425 3.125C9.425 3.24039 9.49038 3.32692 9.58846 3.38462C10.8308 4.07692 11.5827 5.28846 11.5827 6.75962C11.5827 7.85577 11.0923 8.83654 10.2096 9.52885C10.1442 9.58654 10.1442 9.70192 10.2096 9.75962C10.4385 9.90385 10.9615 10.1058 11.2885 10.25C11.3865 10.2788 11.4519 10.3077 11.55 10.3077H15.5058C16.2577 10.3077 16.8462 9.75962 16.8462 9.15385V8.98077C16.8462 7.97115 15.6038 7.42308 14.2308 6.93269Z" fill="black"/>
<path d="M9.85 10.9423C8.73846 10.5385 8.575 10.1923 8.575 9.81731C8.575 9.44231 8.90192 9.06731 9.26154 8.77885C9.91538 8.28846 10.275 7.59615 10.275 6.78846C10.275 5.28846 9.16346 3.99039 7.13654 3.99039C5.14231 3.99039 3.99808 5.28846 3.99808 6.78846C3.99808 7.59615 4.35769 8.28846 5.01154 8.77885C5.37115 9.06731 5.69808 9.44231 5.69808 9.81731C5.69808 10.1923 5.53462 10.5673 4.39038 10.9423C2.75577 11.5192 1.15385 12.1827 1.15385 13.3942V13.4808V13.7692C1.15385 14.4038 1.74231 14.9231 2.49423 14.9231H11.55C12.3019 14.9231 12.9231 14.4038 12.9231 13.7692V13.4808V13.3654C12.9231 12.1827 11.4846 11.5192 9.85 10.9423Z" fill="black"/>
</svg>
