<svg width="13" height="12" viewBox="0 0 13 12" fill="none" xmlns="http://www.w3.org/2000/svg">
<path d="M6.49982 0C3.18625 0 0.499634 2.68653 0.499634 6C0.499634 9.31347 3.18625 12 6.49982 12C9.81339 12 12.5 9.31347 12.5 6C12.5 2.68653 9.81339 0 6.49982 0ZM6.49982 11.1624C3.65157 11.1624 1.33721 8.84816 1.33721 6C1.33721 3.15184 3.65157 0.837551 6.49982 0.837551C9.34807 0.837551 11.6624 3.15184 11.6624 6C11.6624 8.84816 9.34807 11.1624 6.49982 11.1624Z" fill="#FCFBFB"/>
<path d="M6.49981 1.3151C3.91851 1.3151 1.81477 3.41877 1.81477 6C1.81477 8.58122 3.91851 10.6849 6.49981 10.6849C9.08112 10.6849 11.1849 8.58122 11.1849 6C11.1849 3.41877 9.08112 1.3151 6.49981 1.3151ZM7.3178 4.14367C7.40352 4.24898 7.37413 4.40082 7.27127 4.48653C7.10228 4.58449 6.98473 4.50612 6.9382 4.44L6.78635 4.24898C6.70064 4.14367 6.73003 3.99184 6.83289 3.90612C6.93575 3.82041 7.09004 3.8498 7.17575 3.95265L7.3178 4.14367ZM7.38637 6.21061C7.34719 6.30612 7.22473 6.39184 7.07289 6.33551C6.89166 6.25959 6.73982 6.10775 6.6639 5.91673C6.61737 5.79184 6.6737 5.6498 6.79615 5.60326C6.92105 5.55673 7.0631 5.61306 7.10963 5.73551C7.13902 5.80163 7.19535 5.86041 7.26147 5.88735C7.37658 5.94367 7.4329 6.08571 7.38637 6.21061ZM3.83279 3.67592C3.9479 3.66612 4.07035 3.70531 4.16587 3.77143C4.27118 3.84735 4.29812 3.99918 4.2124 4.11429C4.05566 4.29796 3.86953 4.16082 3.86953 4.16082C3.73728 4.17061 3.62218 4.06531 3.61238 3.93306C3.59524 3.80082 3.70055 3.68571 3.83279 3.67592ZM2.95603 6.66612C2.85072 6.5902 2.82378 6.43837 2.9095 6.32326C2.98542 6.21796 3.13726 6.19102 3.25237 6.27673L3.56585 6.50449C3.67116 6.58041 3.6981 6.73224 3.61238 6.84735C3.56585 6.91347 3.43115 6.99673 3.27931 6.89388L2.95603 6.66612ZM3.78626 8.8751C3.73973 8.92163 3.63442 9.02204 3.44339 8.8849L3.31849 8.76C3.22298 8.66449 3.22298 8.51265 3.31849 8.41714C3.41401 8.32163 3.56585 8.32163 3.66136 8.41714L3.78626 8.54204C3.88178 8.62775 3.88178 8.78939 3.78626 8.8751ZM4.66057 7.95184C4.49894 8.08163 4.36424 7.99102 4.31771 7.94204L4.12668 7.74122C4.03117 7.64571 4.03117 7.49388 4.12668 7.39837C4.22219 7.30286 4.37404 7.30286 4.46955 7.39837L4.66057 7.59918C4.75609 7.70449 4.75609 7.86612 4.66057 7.95184ZM4.01402 6.23755C3.58544 6.23755 3.24257 5.89469 3.24257 5.46612C3.24257 5.03755 3.58544 4.69469 4.01402 4.69469C4.44261 4.69469 4.78548 5.03755 4.78548 5.46612C4.78548 5.89469 4.44261 6.23755 4.01402 6.23755ZM4.54792 2.8849C4.50139 2.76 4.55771 2.61796 4.68017 2.57143C4.83201 2.50531 4.98385 2.46612 5.14794 2.43918C5.28019 2.41959 5.40509 2.5151 5.42468 2.64C5.44427 2.77224 5.34876 2.89714 5.22386 2.91673C5.09896 2.93633 4.9863 2.96326 4.87119 3.01224C4.70221 3.09306 4.58465 2.98041 4.54792 2.8849ZM5.96592 9.83755C5.92674 9.94286 5.82143 10.031 5.66224 9.98939L5.22386 9.84735C5.09896 9.80816 5.03283 9.66612 5.07202 9.54367C5.1112 9.41877 5.25325 9.35265 5.3757 9.39184L5.81408 9.53388C5.94633 9.57061 6.0149 9.7151 5.96592 9.83755ZM6.2892 7.14367C6.24266 7.21959 6.12756 7.32 5.96592 7.23918C5.82388 7.15347 5.68918 7.04816 5.57652 6.92571C5.4908 6.82041 5.5006 6.66857 5.59611 6.58286C5.70142 6.49714 5.85326 6.50694 5.93898 6.60245C6.0149 6.68816 6.10062 6.75429 6.19613 6.81306C6.31858 6.87673 6.35777 7.02857 6.2892 7.14367ZM6.2892 5.05714C6.09572 5.1649 5.99286 5.08653 5.94633 5.02775C5.84102 4.90286 5.7553 4.78041 5.68918 4.63837C5.63285 4.51347 5.67938 4.37143 5.80428 4.3151C5.92919 4.25877 6.07123 4.30531 6.12756 4.4302C6.17409 4.53551 6.24266 4.63102 6.31858 4.71673C6.4043 4.8098 6.39451 4.96163 6.2892 5.05714ZM6.4043 2.34367C6.38471 2.21143 6.47043 2.08653 6.60512 2.06694C6.78635 2.03755 6.97738 2.10612 7.09004 2.24816C7.17575 2.35347 7.16596 2.50531 7.06065 2.59102C6.89656 2.70367 6.76431 2.62041 6.71778 2.56163C6.70798 2.55184 6.68839 2.54204 6.67125 2.54204C6.54635 2.56163 6.42389 2.47592 6.4043 2.34367ZM7.3178 9.37224C6.87942 9.37224 6.52675 9.01959 6.52675 8.58122C6.52675 8.14286 6.87942 7.7902 7.3178 7.7902C7.75618 7.7902 8.10884 8.14286 8.10884 8.58122C8.10884 9.00979 7.75618 9.37224 7.3178 9.37224ZM8.46151 7.35184C8.34395 7.39592 8.24354 7.31265 8.19456 7.24653C8.09905 7.20735 8.03292 7.11429 8.04272 7.00898C8.05252 6.87673 8.15782 6.77143 8.29987 6.78122C8.46151 6.79102 8.60355 6.90612 8.64274 7.06775C8.67213 7.1902 8.59621 7.3249 8.46151 7.35184ZM7.99619 3.96245C7.99619 3.46775 8.40518 3.05877 8.89989 3.05877C9.3946 3.05877 9.80359 3.46775 9.80359 3.96245C9.80359 4.45714 9.3946 4.86612 8.89989 4.86612C8.39538 4.86612 7.99619 4.46694 7.99619 3.96245ZM10.0534 7.57224L9.92849 7.77306C9.7742 7.95184 9.63215 7.87837 9.59542 7.84898C9.48031 7.78286 9.44358 7.63102 9.5195 7.51592L9.6444 7.3151C9.71052 7.2 9.86237 7.16326 9.97747 7.23918C10.0901 7.30531 10.1293 7.45714 10.0534 7.57224ZM9.86237 6.27673C9.79624 6.25714 9.72032 6.25714 9.6444 6.25714C9.51215 6.26694 9.39705 6.17143 9.38725 6.03918C9.37745 5.90694 9.47297 5.79184 9.60522 5.78204C9.73012 5.77224 9.85257 5.78204 9.97747 5.81143C10.1097 5.84082 10.1881 5.97306 10.1587 6.10775C10.1293 6.21061 10.0093 6.31347 9.86237 6.27673Z" fill="#FCFBFB"/>
</svg>
