<svg width="15" height="14" viewBox="0 0 15 14" fill="none" xmlns="http://www.w3.org/2000/svg">
<path d="M12.5806 2.22225C10.9843 1.63572 9.1758 1.3125 7.48759 1.3125C5.74962 1.3125 3.93837 1.63064 2.38634 2.20777C1.83127 2.41674 1.73584 2.78516 1.83154 3.05988L1.94283 3.31836C1.96466 3.36898 1.99725 3.415 2.03864 3.45367C2.08003 3.49235 2.12939 3.52289 2.18376 3.54348C2.23813 3.56407 2.29642 3.57429 2.35513 3.57352C2.41385 3.57275 2.4718 3.56101 2.52552 3.539C2.82084 3.41814 3.17986 3.27139 3.2638 3.2399C4.4672 2.77602 5.9331 2.53125 7.49962 2.53125C9.07107 2.53125 10.4552 2.76586 11.7313 3.24854C11.8522 3.29424 12.1382 3.41154 12.4469 3.53951C12.5005 3.56175 12.5584 3.57374 12.6171 3.57476C12.6759 3.57578 12.7342 3.56582 12.7887 3.54547C12.8431 3.52512 12.8926 3.49479 12.9342 3.4563C12.9758 3.4178 13.0086 3.37193 13.0307 3.32141L13.1324 3.08984L13.1417 3.06699C13.2361 2.80775 13.1456 2.43096 12.5806 2.22225Z" fill="black"/>
<path d="M11.6881 4.07652C10.4437 3.61111 8.91276 3.34375 7.4876 3.34375C6.04952 3.34463 4.6241 3.59335 3.28377 4.07729C3.26928 4.08262 3.22744 4.09963 3.16647 4.12502C3.11375 4.14696 3.06623 4.17838 3.02666 4.21746C2.98709 4.25654 2.95624 4.30251 2.9359 4.35272C2.91557 4.40293 2.90614 4.45639 2.90817 4.51C2.9102 4.56361 2.92364 4.61632 2.94772 4.66508C3.05709 4.88623 3.2053 5.18762 3.37155 5.52557C4.27143 7.35547 5.94678 10.7578 6.71377 12.2305C6.78482 12.3679 6.89636 12.4837 7.03546 12.5646C7.17456 12.6455 7.33551 12.6881 7.49963 12.6875C7.66403 12.6881 7.82524 12.6453 7.96446 12.5641C8.10369 12.483 8.21521 12.3667 8.28604 12.2289L8.28768 12.2256L12.042 4.67016C12.0668 4.62071 12.0806 4.56712 12.0826 4.51259C12.0846 4.45807 12.0746 4.40373 12.0534 4.35286C12.0322 4.30199 12.0001 4.25563 11.9591 4.21656C11.9181 4.17749 11.869 4.14653 11.8148 4.12553C11.753 4.10141 11.7095 4.08465 11.6917 4.07805L11.6881 4.07652ZM5.80651 6.18572C5.62897 6.19647 5.45212 6.15671 5.29954 6.07174C5.14697 5.98678 5.02591 5.86064 4.95251 5.71014C4.87911 5.55965 4.85686 5.39196 4.88872 5.22943C4.92058 5.06689 5.00505 4.91724 5.13085 4.80042C5.25666 4.6836 5.41782 4.60517 5.59286 4.57558C5.7679 4.54599 5.94849 4.56666 6.11056 4.63481C6.27263 4.70297 6.40847 4.81538 6.49997 4.95706C6.59148 5.09874 6.63429 5.26296 6.62272 5.42781C6.6089 5.62461 6.51847 5.81002 6.36829 5.94947C6.21811 6.08892 6.01844 6.17289 5.80651 6.18572ZM7.55651 9.43572C7.37897 9.44647 7.20212 9.40671 7.04954 9.32174C6.89697 9.23677 6.77591 9.11064 6.70251 8.96014C6.62911 8.80965 6.60686 8.64196 6.63872 8.47943C6.67058 8.31689 6.75505 8.16724 6.88085 8.05042C7.00666 7.9336 7.16782 7.85517 7.34286 7.82558C7.5179 7.79599 7.69849 7.81665 7.86056 7.88481C8.02263 7.95297 8.15847 8.06538 8.24997 8.20706C8.34148 8.34874 8.38429 8.51296 8.37272 8.67781C8.3589 8.87461 8.26847 9.06002 8.11829 9.19947C7.96811 9.33892 7.76844 9.42289 7.55651 9.43572ZM9.30651 6.59197C9.12897 6.60272 8.95212 6.56296 8.79954 6.47799C8.64697 6.39303 8.52591 6.26689 8.45251 6.11639C8.37911 5.9659 8.35686 5.79821 8.38872 5.63568C8.42059 5.47314 8.50505 5.32349 8.63085 5.20667C8.75666 5.08985 8.91782 5.01142 9.09286 4.98183C9.2679 4.95224 9.44849 4.97291 9.61056 5.04106C9.77263 5.10922 9.90847 5.22163 9.99997 5.36331C10.0915 5.50499 10.1343 5.66921 10.1227 5.83406C10.1089 6.03086 10.0185 6.21627 9.86829 6.35572C9.71811 6.49517 9.51844 6.57914 9.30651 6.59197Z" fill="black"/>
</svg>
