<svg width="21" height="22" viewBox="0 0 21 22" fill="none" xmlns="http://www.w3.org/2000/svg">
<path d="M11.9286 3.4375C11.9286 2.67695 11.2902 2.0625 10.5 2.0625C9.70982 2.0625 9.07143 2.67695 9.07143 3.4375V9.625H2.64286C1.85268 9.625 1.21428 10.2395 1.21428 11C1.21428 11.7605 1.85268 12.375 2.64286 12.375H9.07143V18.5625C9.07143 19.323 9.70982 19.9375 10.5 19.9375C11.2902 19.9375 11.9286 19.323 11.9286 18.5625V12.375H18.3571C19.1473 12.375 19.7857 11.7605 19.7857 11C19.7857 10.2395 19.1473 9.625 18.3571 9.625H11.9286V3.4375Z" fill="#FCFBFB"/>
</svg>
