<svg width="16" height="16" viewBox="0 0 16 16" fill="none" xmlns="http://www.w3.org/2000/svg">
<g clip-path="url(#clip0_121_6272)">
<path d="M2.14961 11.5584C2.14688 11.558 2.15117 11.5593 2.16145 11.5618C2.1525 11.5561 2.14831 11.5546 2.14961 11.5584Z" fill="black"/>
<path d="M13.8496 4.44127C13.8523 4.44163 13.8481 4.44039 13.8378 4.43789C13.8467 4.44361 13.8509 4.44508 13.8496 4.44127Z" fill="black"/>
<path d="M0.919349 7.57806C1.74136 8.24915 3.03157 6.72943 5.07796 5.88754C6.01328 5.44325 7.94829 4.44894 9.94379 4.25526C10.4261 4.17997 10.9121 4.15387 11.3696 4.15706C11.7926 4.50472 12.1801 4.88931 12.5125 5.25529C13.2146 6.0109 13.6814 6.68657 14.1102 6.774C14.3028 6.53297 14.1788 5.55824 13.8002 4.42867C13.8168 4.43256 13.8294 4.43565 13.8378 4.43783C13.8297 4.43232 13.8177 4.42298 13.8015 4.40993C14.6567 3.90444 15.4797 3.56685 15.4996 3.2109C15.0826 2.76102 14.1169 2.59545 13.0691 2.66709C12.5644 2.6959 12.0411 2.7791 11.5279 2.88122C11.0482 2.63783 10.5091 2.41194 9.92495 2.24436C8.91098 1.8917 7.75412 1.72433 6.66468 1.71378C6.5889 1.28233 6.77282 0.834155 6.94161 0.569768C6.96829 0.52645 6.95358 0.477439 6.90334 0.444742C6.85316 0.412045 6.77666 0.402048 6.70855 0.419542C5.31375 0.795592 4.45448 1.52513 3.97981 2.06526C3.73204 2.14606 3.51044 2.23992 3.3217 2.34596C1.91907 2.98296 1.02514 4.22034 0.685706 5.27751C0.329417 6.3513 0.527623 7.24492 0.919349 7.57806Z" fill="black"/>
<path d="M15.08 8.42202C14.2579 7.75093 12.9677 9.27065 10.9213 10.1125C9.98602 10.5568 8.05102 11.5511 6.05549 11.7448C5.57317 11.8201 5.0872 11.8462 4.62965 11.843C4.20671 11.4954 3.81915 11.1108 3.48681 10.7448C2.78468 9.98918 2.31792 9.31352 1.88909 9.22608C1.69648 9.46711 1.8205 10.4418 2.19904 11.5714C2.18248 11.5675 2.16989 11.5644 2.16149 11.5622C2.16956 11.5678 2.1816 11.5771 2.19777 11.5902C1.34257 12.0956 0.519614 12.4332 0.499634 12.7891C0.916677 13.239 1.88236 13.4046 2.93014 13.333C3.43481 13.3041 3.95817 13.2209 4.4714 13.1188C4.95105 13.3622 5.49015 13.5881 6.07433 13.7557C7.0883 14.1083 8.24515 14.2757 9.33459 14.2863C9.41037 14.7177 9.22642 15.1659 9.05766 15.4302C9.03098 15.4736 9.04569 15.5226 9.09593 15.5553C9.14611 15.5879 9.22262 15.598 9.29072 15.5805C10.6855 15.2044 11.5448 14.4749 12.0195 13.9348C12.2672 13.854 12.4888 13.7601 12.6776 13.6541C14.0802 13.0171 14.9741 11.7797 15.3135 10.7225C15.6699 9.64878 15.4716 8.7552 15.08 8.42202Z" fill="black"/>
</g>
<defs>
<clipPath id="clip0_121_6272">
<rect width="15" height="16" fill="white" transform="translate(0.499634)"/>
</clipPath>
</defs>
</svg>
