<svg width="16" height="14" viewBox="0 0 16 14" fill="none" xmlns="http://www.w3.org/2000/svg">
<g clip-path="url(#clip0_121_6273)">
<path d="M10.1872 7.18103V4.90298L8.64182 4.28802C6.92854 6.0547 6.28811 10.6565 2.14026 10.6565C1.70514 10.6565 1.28784 10.8063 0.980162 11.073C0.672485 11.3396 0.499634 11.7013 0.499634 12.0784C0.499634 12.4555 0.672485 12.8171 0.980162 13.0838C1.28784 13.3504 1.70514 13.5002 2.14026 13.5002C8.36995 13.5002 12.9991 10.3805 14.4209 8.15958L13.3355 7.18103H10.1872ZM14.0278 3.92163C14.9699 2.40226 14.4795 1.17259 13.9358 0.576416C13.915 0.55412 13.8891 0.535878 13.8596 0.522886C13.8302 0.509894 13.7979 0.502447 13.7649 0.501032C13.7319 0.499617 13.6989 0.504268 13.6681 0.514678C13.6373 0.525088 13.6094 0.541022 13.5863 0.561436L12.9154 1.14542C12.8768 1.17934 12.8532 1.22382 12.8484 1.27123C12.8437 1.31863 12.8581 1.366 12.8893 1.40517C13.0903 1.66821 13.3888 2.29638 12.8483 3.24142C12.3201 3.04133 11.75 2.93795 11.1737 2.93774C10.3533 2.93774 9.59163 3.15458 8.93713 3.51132L11.1247 4.38196V6.36853H13.7348L15.3367 7.81274C15.4323 7.49231 15.4996 7.16198 15.4996 6.81464C15.5002 6.27018 15.3696 5.73163 15.1161 5.23345C14.8627 4.73528 14.492 4.28847 14.0278 3.92163Z" fill="black"/>
</g>
<defs>
<clipPath id="clip0_121_6273">
<rect width="15" height="13" fill="white" transform="translate(0.499634 0.5)"/>
</clipPath>
</defs>
</svg>
