<svg width="12" height="14" viewBox="0 0 12 14" fill="none" xmlns="http://www.w3.org/2000/svg">
<g clip-path="url(#clip0_142_33148)">
<path d="M3.81928 0.949414L3.64249 1.3125H1.28535C0.85075 1.3125 0.499634 1.67559 0.499634 2.125C0.499634 2.57441 0.85075 2.9375 1.28535 2.9375H10.7139C11.1485 2.9375 11.4996 2.57441 11.4996 2.125C11.4996 1.67559 11.1485 1.3125 10.7139 1.3125H8.35678L8.17999 0.949414C8.0474 0.672656 7.77486 0.5 7.47776 0.5H4.52151C4.22441 0.5 3.95187 0.672656 3.81928 0.949414ZM10.7139 3.75H1.28535L1.80588 12.3574C1.84517 12.9998 2.36079 13.5 2.982 13.5H9.01727C9.63847 13.5 10.1541 12.9998 10.1934 12.3574L10.7139 3.75Z" fill="#FCFBFB"/>
</g>
<defs>
<clipPath id="clip0_142_33148">
<rect width="11" height="13" fill="white" transform="translate(0.499634 0.5)"/>
</clipPath>
</defs>
</svg>
