<svg width="19" height="18" viewBox="0 0 19 18" fill="none" xmlns="http://www.w3.org/2000/svg">
<path d="M17.3746 13.5H15.7546C15.8896 13.005 16.1878 12.9431 16.2665 12.9375C16.5703 12.9319 16.8178 12.6787 16.8178 12.375C16.8178 12.0656 16.5646 11.8125 16.2553 11.8125C15.9571 11.8125 15.5296 11.9362 15.1753 12.2906C15.0403 12.0994 14.8828 11.9194 14.6971 11.7619C14.0671 11.2275 13.2346 10.9969 12.4134 11.1375L11.9184 11.2219L14.4834 9.32062C15.1415 8.83687 15.5578 8.08875 15.6196 7.2675C15.6759 6.5475 15.4509 5.83875 14.9953 5.28187C15.5015 5.1975 16.2271 5.27062 16.9809 6.02437C17.0878 6.13125 17.2284 6.1875 17.3746 6.1875C17.5209 6.1875 17.6615 6.13125 17.774 6.02437C17.9934 5.805 17.9934 5.45062 17.774 5.23125C16.9471 4.40437 16.0696 4.14 15.3159 4.14L17.7346 2.12625C17.9709 1.92937 18.0046 1.575 17.8078 1.33312C17.6109 1.09687 17.2565 1.06312 17.0146 1.26L15.3496 2.64375L15.6478 1.89562C15.7659 1.60875 15.6253 1.2825 15.3328 1.16437C15.0459 1.04625 14.7196 1.18687 14.6015 1.47937L13.8759 3.29062C13.8253 3.00375 13.8309 2.7225 13.9378 2.4975C14.0784 2.22187 13.9659 1.88437 13.6846 1.74375C13.4034 1.60312 13.0715 1.71562 12.9309 1.99687C12.7396 2.37375 12.6946 2.78437 12.7228 3.18375C12.2671 2.9475 11.7496 2.84062 11.2265 2.88C10.4053 2.94187 9.66276 3.35812 9.17338 4.01625L2.72713 12.7519L2.35588 12.8137C1.60213 12.9319 1.06213 13.5675 1.06213 14.3269C1.06213 14.67 1.17463 14.9963 1.37713 15.2494C1.62463 15.5813 1.99588 15.795 2.40651 15.8456L12.5203 17.1169C12.6384 17.1337 12.7509 17.1394 12.869 17.1394C13.5496 17.1394 14.2134 16.8919 14.7309 16.4362C15.0909 16.1212 15.3553 15.7219 15.5128 15.2831C15.5521 15.3112 15.5803 15.3394 15.6028 15.3619C15.8559 15.6825 15.7771 16.425 15.704 16.7344C15.6309 17.0381 15.8109 17.3419 16.1146 17.415C16.1596 17.4319 16.2046 17.4375 16.2496 17.4375C16.5028 17.4375 16.7334 17.2687 16.7953 17.01C16.8346 16.8581 17.144 15.5081 16.4915 14.67C16.4803 14.6531 16.4578 14.6362 16.4465 14.6194H17.3746C17.684 14.6194 17.9371 14.3662 17.9371 14.0569C17.9371 13.7531 17.684 13.5 17.3746 13.5Z" fill="black"/>
</svg>
