<svg width="75" height="103" viewBox="0 0 75 103" fill="#0000" xmlns="http://www.w3.org/2000/svg">
<path d="M48.2855 1.20452C51.6295 2.52918 46.5134 6.59693 46.0787 6.55654C46.0583 6.55462 46.0783 6.2493 46.1237 5.88003C46.6678 1.42521 46.0533 1.77477 46.359 1.3454C46.3926 1.29828 47.1574 1.07085 47.3354 1.05498C47.785 1.01411 48.3691 1.21221 48.2855 1.20452ZM46.1764 0.233246C46.0152 0.301042 45.9493 0.308742 45.8898 0.267391C45.8194 0.217867 45.6132 0.191423 45.5801 0.151514C45.4611 0.00967186 45.0469 -0.131218 44.9379 0.220744C44.6903 1.02372 45.016 2.61331 43.6898 8.4029C43.5372 9.0698 43.1344 12.6644 43.4528 13.2664C43.7248 13.7804 44.0963 13.741 44.3479 13.6766C44.7912 13.5636 44.5755 13.5059 44.8711 13.0202C45.0442 12.7356 44.9488 12.4577 45.0323 12.4659C45.2226 12.4836 45.4125 10.3296 45.7281 8.50388C46.2813 8.28126 46.4148 8.22115 46.601 8.41829C47.5325 9.4083 47.2596 14.7627 49.0272 15.1705C49.3973 15.2556 49.1907 14.9738 49.2338 14.6839C49.2533 14.5526 49.2452 14.5291 49.1789 14.5343C49.1148 14.5392 49.1066 14.5228 49.1339 14.4411C49.217 14.1891 49.0063 13.0428 49.0249 12.3711C49.0635 10.9517 48.7265 8.97653 47.9463 7.9317C47.6188 7.49367 47.642 7.49511 47.9394 7.35952C50.3665 6.25074 49.6902 6.07236 50.1439 5.78627C50.2311 5.73194 50.4196 5.40835 50.4283 5.29776L50.4655 5.22995C50.55 5.23812 50.5373 4.91886 50.7575 4.56738C51.1599 3.92645 51.2694 2.72391 50.8193 1.70312C50.1703 0.230845 47.404 -0.284119 46.1764 0.233246Z" fill="#FCFBFB"/>
<path d="M39.5053 0.858382C39.3397 0.858382 38.9653 1.26161 39.1168 1.50996C39.2552 1.73785 38.6502 10.2382 38.9982 12.6659C39.1228 13.536 39.3777 13.8718 39.9075 13.8653C40.3561 13.8593 40.4859 13.7686 40.4987 13.45C40.5103 13.1612 40.6264 13.2509 40.6917 13.0556C40.8462 12.5975 40.7117 6.15985 41.0319 3.32378C41.4503 -0.377342 40.0987 0.858382 39.5053 0.858382Z" fill="#FCFBFB"/>
<path d="M32.0568 0.868942C31.7744 1.02027 30.5061 2.23912 30.3813 2.47888C29.7312 3.72873 29.5 5.70516 29.4488 7.1305C29.3647 9.45881 30.4921 12.5296 31.2403 13.4372C31.7543 14.0607 32.2394 14.3082 32.6794 14.5257C35.1916 14.5038 34.8803 14.1683 35.1211 14.1683C35.4364 14.1683 36.3396 13.1295 36.432 12.3405C36.5112 11.6595 36.752 12.5511 36.6351 9.73503C36.6167 9.2938 36.4845 8.65109 36.4403 8.78966C36.0944 9.87906 35.9793 12.8013 34.193 13.5338C33.4977 13.8191 32.2959 11.9239 32.2959 11.618C32.2959 11.5332 31.6843 10.0742 31.7267 9.81116C31.7793 9.47841 31.3555 9.96339 31.6278 4.8824C31.6943 3.64942 33.5813 1.18163 34.1032 1.9825C34.4745 2.55318 34.0949 3.42516 34.6627 4.33588C34.9062 4.72651 35.1369 4.8031 35.1824 4.50773C35.2516 4.06285 35.3068 3.87733 35.4491 3.62116C36.08 2.48025 35.5992 1.33615 34.6155 0.846143C34.1404 0.609574 32.598 0.579498 32.0568 0.868942Z" fill="#FCFBFB"/>
<path d="M57.4248 3.30127C57.2695 3.32318 56.4097 3.81128 56.1094 4.04811C53.907 5.78423 52.9615 8.02384 52.0599 9.94411C50.7806 12.6695 51.0221 13.4219 51.475 14.5921C52.0353 16.0392 53.246 16.6294 53.9945 16.4853C55.7475 16.1478 56.0606 14.0881 56.4572 13.8401C56.532 13.793 56.5369 13.6019 56.4647 13.5338C56.4199 13.4919 56.3847 13.4201 56.3838 13.3683C56.3807 13.2219 56.266 13.3231 56.1714 13.2303C56.09 13.1506 55.7342 13.208 55.5434 13.331C55.3424 13.4606 55.1757 13.6788 54.6893 14.4466C54.0926 15.3893 53.9642 15.4807 53.4677 15.4634C52.2139 15.4191 53.129 12.0686 53.3111 11.7968C53.3621 11.7208 55.5654 7.41126 56.404 6.79961C56.4955 6.73248 58.0484 5.1959 58.595 5.0579C58.8294 4.99869 59.3884 5.13481 59.4161 5.25742C59.4266 5.30451 59.4029 5.53295 59.3628 5.77024C59.15 7.0341 58.0365 7.53853 58.4107 8.77536L58.5796 8.67512C58.821 8.532 58.7309 8.42989 58.9147 8.32174C58.964 8.29283 59.6144 7.75438 59.6443 7.76184C59.6953 7.77536 60.0691 7.27886 60.1747 7.05835C60.3774 6.63317 60.6765 5.50591 60.5045 5.0206C60.2741 4.37305 60.1747 4.45184 59.0137 3.86723C58.5866 3.65184 58.2471 3.51292 57.4248 3.30127Z" fill="#FCFBFB"/>
<path d="M18.6205 3.1034C17.9469 3.16845 17.3444 2.98658 18.1994 5.77979C19.6933 10.6561 20.4986 16.5069 22.3481 16.5064C22.8685 16.5064 22.5459 16.1701 22.9364 16.0694C23.1242 16.0203 24.0831 15.6465 24.9399 15.5338C25.6969 15.4339 26.1795 14.875 26.1458 14.7875L26.19 14.7325C26.2985 14.7325 26.1458 14.4366 26.3094 14.4366C26.3928 14.4366 26.6667 14.0059 26.6667 13.8754C26.6667 13.7805 26.6376 13.7448 26.5195 13.6944C26.0214 13.4837 25.3496 13.83 24.8351 14.0609C23.7386 14.5534 23.1524 14.6176 22.9214 14.7371C22.7755 14.8123 22.9619 14.5035 22.8311 14.454C22.7856 14.4366 22.771 14.3931 22.7851 14.317C22.8252 14.1026 21.4042 9.62898 21.3727 9.42007C23.1534 8.56658 23.6437 8.75212 23.8174 8.35584C23.8484 8.28392 23.8999 8.22849 23.9354 8.22849C24.0334 8.22849 24.2139 7.67873 23.9605 7.5587C23.5449 7.36125 21.721 7.96048 21.2889 8.27155C21.0989 8.40807 21.0159 8.38517 20.953 8.17855C20.2648 5.91127 19.6136 4.62347 19.609 4.33118C19.6067 4.20199 20.3387 4.13236 20.423 4.13236C20.5374 4.13236 23.2568 3.4415 23.2842 2.80196C23.2988 2.44965 23.6574 2.37726 23.1538 2.09414C22.24 1.58104 20.021 2.96825 18.6205 3.1034Z" fill="#FCFBFB"/>
<path d="M60.9166 11.1454C58.9973 13.7307 57.0287 16.3182 57.2374 17.4572C57.3141 17.8755 57.1953 18.0557 57.383 18.2607C57.9021 18.8288 59.2592 18.7915 60.5129 19.7793C61.4477 20.5161 61.5755 20.1152 61.8734 20.3986C61.9715 20.4921 62.0644 20.5359 62.5146 20.2304C62.4787 19.6803 62.4039 19.5038 61.9845 19.1149C60.8074 18.0221 60.7332 17.7175 58.8441 17.177C59.0035 16.8098 62.5533 12.3102 62.9661 11.0316C62.9743 11.0063 64.67 8.53621 64.9611 7.59675C65.1048 7.13232 64.7964 7.24013 64.895 7.22124C64.918 7.21663 64.8783 7.1185 64.8079 7.00424C64.2294 6.06293 64.3467 6.52321 60.9166 11.1454Z" fill="#FCFBFB"/>
<path d="M18.7456 17.9971C18.7517 18.0555 18.6882 18.1073 18.6795 18.0265C18.6711 17.9458 18.7395 17.9392 18.7456 17.9971ZM13.2571 10.9281C13.2957 11.0098 13.2125 11.0205 13.2028 10.9351C13.1945 10.8543 13.2177 10.8431 13.2571 10.9281ZM14.0052 10.6433C14.0433 10.6965 13.8988 10.7143 13.925 10.6531C13.95 10.5938 13.9675 10.5905 14.0052 10.6433ZM14.6599 10.4948C14.6621 10.5186 14.4615 10.6904 14.5386 10.5662C14.585 10.4911 14.6551 10.45 14.6599 10.4948ZM11.6104 6.06055C10.9207 6.42474 11.1283 6.51626 11.4594 7.31141C12.2415 9.18979 13.7402 12.2686 13.7678 12.3527C13.7893 12.4176 13.2755 12.7252 12.6926 13.1534C12.4666 13.3196 12.2805 13.448 12.2766 13.4419C11.7208 12.5137 9.22052 8.62296 9.23891 8.79571C9.22753 8.68926 8.58021 8.13923 8.13218 8.24569C7.74372 8.3372 7.71176 8.3867 7.85891 8.66311C8.12782 9.16831 14.2636 22.8325 15.6944 20.9504C15.9103 20.666 15.9493 20.864 15.9427 20.6151C15.9383 20.4606 16.0351 20.4946 16.0097 20.3578C15.9707 20.1515 15.976 20.1085 15.9317 20.2005C15.8801 20.3079 15.8012 20.1613 15.8503 20.1202C15.9939 20.0002 15.3677 19.085 15.4539 18.9697L15.4347 18.9001C15.4128 18.8763 15.3493 18.7288 15.291 18.5668C14.9849 17.7142 13.1074 14.8492 13.0421 14.6298C12.9598 14.3515 13.4827 14.4015 14.2986 13.3369C15.4333 14.8376 16.9798 20.0492 18.3234 18.8815C18.5722 18.6653 18.6098 18.7526 18.7206 18.4332C18.7675 18.2974 18.8082 18.2049 18.8104 18.2273L18.8577 18.211C19.2966 17.6241 14.9696 10.9902 14.5255 9.97421C14.4103 9.7104 14.3569 9.62962 14.31 9.64503L14.2631 9.60301C14.2942 9.48301 13.6947 8.31432 13.4424 7.72228C12.8884 6.421 12.8989 6.87018 12.9357 6.7175C12.9611 6.61384 12.732 6.33509 12.6322 6.34677C12.5043 6.36264 12.8008 6.31268 12.3076 6.01012C12.0239 5.83596 11.691 6.05121 11.6104 6.06055Z" fill="#FCFBFB"/>
<path d="M69.6898 10.5641C69.523 10.5843 69.5746 10.6612 69.2499 11.0232C68.4848 11.8764 68.1098 13.9147 67.238 14.583C66.7878 14.9282 65.5751 17.5889 65.4258 17.7043C64.7782 18.2061 63.8243 20.5446 63.788 20.6252C63.3467 21.6022 63.5525 21.521 63.4009 21.8573C63.2148 22.27 63.4749 22.521 63.4579 22.5946L63.4915 22.641C63.5153 22.6471 63.5709 22.7114 63.6171 22.7869C63.7575 23.012 63.8386 22.9543 63.9292 23.0744C64.5495 23.8933 65.354 24.109 66.2177 24.3215C66.6164 24.4195 67.13 24.5705 67.0927 24.1433C67.0654 23.829 66.3998 23.8187 65.1719 22.9266C64.7495 22.6194 64.4207 22.3066 64.4378 22.2273C64.5261 21.8137 66.8187 19.4822 66.9174 19.0573C66.9223 19.0362 67.4358 18.2886 67.5439 18.1535C67.8197 17.8098 67.8282 17.8037 67.9556 17.8463C68.2327 17.9411 68.9915 18.7773 69.6037 18.9391C70.419 19.1549 71.0415 19.7998 71.1083 19.5127C71.246 18.9204 69.4369 17.5551 69.3664 17.4885C69.2463 17.3759 68.6328 17.0659 68.5126 16.996C68.2973 16.8694 69.6104 15.529 69.6885 15.4596C70.2818 14.9338 70.5257 13.6239 70.7863 13.6835C71.107 13.758 71.2285 14.0858 72.5004 14.4357C73.7736 14.7856 74.1588 14.5558 74.5167 15.0511C75.38 16.2466 75.1642 13.7135 73.2403 12.8622C72.4537 12.5137 71.2168 12.1582 70.6621 11.3595C70.5092 11.1391 70.0445 10.7756 70.0024 10.6358C69.9692 10.5275 69.771 10.5847 69.6898 10.5641Z" fill="#FCFBFB"/>
<path d="M7.72332 22.445C7.72649 22.5028 7.64545 22.5639 7.64093 22.4751C7.6364 22.3887 7.72015 22.3872 7.72332 22.445ZM7.83876 22.2458C7.84239 22.3276 7.81838 22.336 7.78262 22.2486C7.74731 22.164 7.83424 22.1589 7.83876 22.2458ZM8.06556 22.0597C8.11988 22.0978 8.11761 22.1044 8.05061 22.1081C7.98814 22.1119 7.97184 22.0799 7.96097 21.9375C7.94015 21.6594 7.96913 21.9916 8.06556 22.0597ZM8.02754 21.2679C8.00083 21.3525 7.98994 21.1585 8.01892 21.1862L8.02754 21.2679ZM5.62639 11.9386C4.54625 12.198 2.19355 14.4516 2.10391 14.5103C0.99343 15.2415 0.246469 15.9111 0.240131 15.9163C-0.0790247 16.1352 -0.0269524 16.1959 0.0934666 16.8626C0.129683 17.0614 0.638958 17.1197 0.586897 17.0398C0.492735 16.8979 0.778397 17.2108 1.77027 16.6869C4.08539 15.4642 2.28181 14.7222 5.50551 20.0208C7.04606 22.5526 8.99042 25.6545 9.12713 25.592C9.17059 25.5722 9.18193 25.5863 9.16518 25.6394C9.1344 25.7381 9.22177 25.6479 9.22539 25.7184C9.22991 25.8006 9.3879 25.9293 9.43906 25.8927C9.46577 25.8734 9.48523 25.895 9.48749 25.9472C9.49293 26.0468 9.70072 26.1995 9.78312 26.1638L9.82658 26.1977C9.79942 26.3645 11.0652 26.6812 11.0525 25.9444C11.048 25.653 11.1335 25.6784 11.1054 25.3861C11.0552 24.8702 11.0724 24.7231 10.9869 24.5535C10.9203 24.4228 10.5097 23.4924 10.4278 23.531C10.3449 23.569 10.4649 23.4539 10.2662 23.1804C9.9968 22.8097 9.87366 22.3177 9.71567 22.1001C9.65501 22.016 8.47843 20.0443 8.39061 19.9814L7.89535 19.2258L7.84645 19.2131C7.76496 19.2709 7.90212 19.2154 7.70066 18.9349C7.48156 18.6295 7.23847 18.3038 6.97862 17.6295C6.20857 15.6287 5.73051 16.0445 5.51955 13.8783C5.45888 13.2576 5.75677 13.5447 6.58024 12.4456C6.97273 11.9231 6.2131 11.7971 5.62639 11.9386Z" fill="#FCFBFB"/>
<path d="M53.4927 85.0183C52.0298 86.2332 51.7154 84.6434 53.1572 88.4546C53.7775 90.0933 54.8511 92.1317 55.7189 93.6429C57.2697 96.345 57.0042 97.4569 58.012 98.6337C58.4994 99.2033 59.0838 99.0683 59.1735 98.8524C59.2188 98.7438 59.3973 98.9051 59.4466 98.7889C59.5116 98.6356 61.5764 97.7151 61.7527 97.4894C61.7841 97.4494 61.8764 97.3887 61.9522 97.3586C62.1608 97.2763 62.2949 96.8831 62.6429 96.4175C63.0241 95.9081 63.525 96.0746 63.2582 95.7256C62.7729 95.092 60.4768 96.4104 59.8431 96.8083C59.4085 97.0816 59.4305 97.0868 59.3762 96.8384C59.043 95.3225 58.2577 94.1227 58.0703 93.4449C57.746 92.2719 57.3271 91.826 57.6967 91.8406C57.7326 91.842 58.029 91.6026 58.3263 91.4535C59.3641 90.9328 59.3323 89.7339 60.1108 89.7645C61.4051 89.8139 59.8754 88.3647 57.8545 89.5886C56.4172 90.4587 57.1343 90.7306 55.0709 86.9707C54.4753 85.8861 54.1901 86.5215 55.5081 85.7059C55.5938 85.6528 56.9836 84.8428 56.9567 84.6354C56.937 84.4778 57.3487 84.1825 57.4415 84.1463C57.8012 84.0066 57.4617 83.9539 58.5299 83.6453C59.0775 83.4873 58.795 83.23 58.1613 83.1962C56.5603 83.1101 54.1241 84.4934 53.4927 85.0183Z" fill="#FCFBFB"/>
<path d="M23.7726 86.8307C25.0918 89.4152 19.9278 95.4506 19.9039 96.0335C19.8772 96.678 20.2545 96.5434 19.9318 96.6776C18.9162 97.0998 18.6086 96.9165 18.3703 96.0216C17.4799 92.6791 22.9488 87.6102 23.481 86.8215C23.6341 86.595 23.6483 86.5872 23.7726 86.8307ZM18.523 89.7303C17.2508 91.2316 16.3227 93.6787 16.7888 95.6265C17.3529 97.9809 19.5679 98.0406 20.4423 97.2945C21.0664 96.7621 21.0011 97.1609 23.2773 93.9539C25.1357 91.3363 24.7332 91.3414 25.1468 90.5503C25.9356 89.0453 25.6071 86.0295 23.9444 85.9734C22.9554 85.9399 22.7158 84.785 18.523 89.7303Z" fill="#FCFBFB"/>
<path d="M50.4715 95.4501C50.4706 95.4785 50.3367 95.6028 50.3763 95.4984C50.3992 95.4377 50.4732 95.4003 50.4715 95.4501ZM51.1578 95.13C51.1565 95.1617 51.0756 95.2125 51.0777 95.1532C51.0799 95.0935 51.1587 95.0977 51.1578 95.13ZM49.6556 87.1942C48.6334 87.3843 47.3994 88.4214 46.3656 88.4172C46.0586 88.4157 46.0819 88.788 46.1663 88.917C46.2261 89.009 46.5925 91.0172 46.7058 91.1258L46.7415 91.2458C46.6868 91.3885 47.7193 94.6202 47.7163 94.7079C47.6961 95.3097 49.8226 101.553 50.1787 101.426C50.2188 101.412 50.2351 101.419 50.2188 101.445C50.1848 101.501 50.3613 101.617 50.4216 101.579L50.4642 101.624C50.462 101.681 50.4737 101.686 50.5189 101.648C50.6425 101.544 50.5809 101.828 50.8366 101.562C50.8771 101.52 50.9236 101.487 50.9412 101.488C50.9753 101.49 51.0502 101.282 51.0398 101.216C51.0368 101.199 51.0683 101.186 51.1122 101.188C51.2409 101.194 51.4941 100.617 51.3201 100.484L51.3296 100.454C51.3688 100.455 51.3718 100.436 51.3421 100.369C51.3042 100.284 51.3016 99.854 51.2159 99.8654C51.1953 99.8682 51.1785 99.7871 51.1794 99.6866C51.182 99.376 50.8896 98.649 50.788 98.7121C50.7622 98.7282 50.7574 98.6898 50.7751 98.6073C50.8121 98.4361 50.5619 97.8628 50.5779 97.8206C50.6097 97.739 50.4939 97.3488 50.4474 97.3777C50.4293 97.3891 50.425 97.3597 50.4371 97.3118C50.4521 97.2553 50.4379 97.215 50.3979 97.1966C50.3432 97.1714 50.3428 97.0642 50.2631 96.9438C50.183 96.8229 50.1804 96.5573 50.1499 96.5213C50.0228 96.371 50.0612 96.0243 49.9359 95.919C49.8438 95.8422 49.8631 95.7137 49.9665 95.718L50.0095 95.6805C49.9234 95.5103 50.4345 95.6478 50.4896 95.4809C50.5361 95.3419 50.7092 95.4733 50.7126 95.3723C50.7148 95.314 50.9193 95.1575 50.8358 95.3116C50.7419 95.4852 51.1238 95.3875 51.085 95.313L51.1122 95.3049C51.1815 95.3557 51.4752 95.0664 51.4691 95.0266L51.5087 94.974C51.5604 94.9735 51.6767 94.8687 51.6271 94.8668L51.6452 94.8018L51.6754 94.6743C51.6487 94.587 51.7563 94.5334 51.7111 94.6074C51.6612 94.6904 51.7697 94.6439 51.7753 94.4813C51.7778 94.4111 51.8062 94.3347 51.8407 94.3063L51.9036 94.2043C51.9057 94.1379 52.1094 93.9853 52.1124 93.9042C52.1158 93.7932 52.2541 93.8164 52.2157 93.696C52.0513 93.1772 50.093 94.4604 49.9479 94.4964C49.6801 94.5633 49.5652 94.4813 49.4528 94.1446C49.228 93.4684 49.1635 93.5869 49.16 93.4153C49.1583 93.3579 49.1367 93.2953 49.1126 93.2777L49.0773 93.2151C49.1411 93.0136 47.7835 89.5197 47.8119 89.4851C47.8808 89.3997 48.7027 89.1711 48.8272 88.9615C48.8586 88.9089 49.3507 88.5936 49.3525 88.5409C49.3533 88.5172 49.4063 88.4741 49.4666 88.447C49.5609 88.4053 49.5901 88.3541 49.6422 88.1326C49.7232 87.7898 49.7133 87.9358 50.0913 87.5863C50.2765 87.4147 50.2635 87.501 50.3819 87.373C50.6377 87.0989 49.957 87.1382 49.6556 87.1942Z" fill="#FCFBFB"/>
<path d="M26.421 90.7098C26.0949 91.6135 22.6516 98.0523 23.4545 99.1173C23.5179 99.201 23.59 99.2692 23.6122 99.265C23.6987 99.25 23.6534 99.3917 23.8735 99.5296C24.0109 99.6166 24.0983 99.6371 24.0632 99.575C23.9859 99.4394 24.8166 99.92 25.1949 99.5656C25.6042 99.1813 25.5788 98.7564 26.5172 96.0613C26.9445 94.8331 26.8363 94.7182 27.5897 94.9584C28.3903 95.2137 28.8639 94.9626 29.1127 94.9715C29.2547 94.9771 29.9254 94.9019 29.9332 94.6962C29.9415 94.4517 28.5758 94.5433 27.4977 94.2053C27.1453 94.095 27.2054 94.4676 28.5582 90.2723C28.8797 89.2756 28.8043 88.8441 29.0031 89.176C29.0637 89.2774 29.0767 89.2826 29.1155 89.219C29.1756 89.1208 29.3546 89.1409 29.6867 89.284C30.8328 89.7791 30.6117 89.3261 31.0964 89.3522C31.4155 89.3695 31.6644 89.3321 31.6667 89.2662C31.6884 88.6669 29.0979 88.4762 28.949 87.8717C28.8505 87.4734 28.1771 86.9638 28.0402 87.2256C28.1267 87.2289 27.2262 88.478 26.421 90.7098Z" fill="#FCFBFB"/>
<path d="M42.437 89.1989C41.7191 89.4424 42.9408 88.9215 44.0341 99.6243C44.1316 100.578 44.3929 102.304 45.2911 102.339C45.4094 102.344 45.4581 102.312 45.6536 102.099C46.0497 101.669 46.1629 101.794 46.2592 101.655C46.3088 101.583 46.5052 101.364 46.4335 101.315C46.4055 101.296 46.4734 101.362 46.5849 101.206C46.685 101.066 46.6947 101.01 46.6053 101.084C46.5433 101.136 46.5412 101.133 46.5832 101.054C46.6294 100.967 46.6472 100.617 46.6057 100.615C46.593 100.614 46.5811 100.58 46.5802 100.538C46.5709 100.182 45.6312 96.0931 45.6477 96.0087C45.6736 95.8785 45.668 95.8404 45.6239 95.8386C45.5858 95.8367 45.5739 95.8028 45.5883 95.7313C45.7236 95.0627 44.5799 91.1702 44.5828 91.0849C44.5879 90.9446 44.1176 90.0692 44.0875 89.9826C43.9098 89.4681 43.8759 89.4273 43.468 89.2406C43.0006 89.0279 42.5155 89.2017 42.437 89.1989Z" fill="#FCFBFB"/>
<path d="M36.2538 89.1453C36.0712 89.4528 36.5542 87.516 36.175 97.5738C36.14 98.5012 35.921 101.128 36.5691 102.69C36.704 103.015 37.0648 103.1 37.3354 102.871C37.4852 102.744 37.5824 102.745 37.723 102.874C37.9774 103.107 40.4587 102.693 40.7389 102.69C41.1672 102.685 41.1344 102.522 41.3082 102.528C41.4838 102.536 41.2211 102.263 41.5815 102.277C41.6498 102.28 41.6725 102.263 41.6585 102.219C41.6375 102.15 41.9725 101.931 42.0649 101.953C42.1464 101.973 42.5545 101.92 42.6776 101.874C43.0121 101.748 42.512 101.146 41.1584 101.109C39.2943 101.058 38.2989 101.579 38.2297 100.983C38.2069 100.785 38.2616 99.3435 38.2936 99.2913L38.2827 99.2562C38.1473 99.2505 38.4429 95.1644 38.1438 90.5605C38.0983 89.8533 37.6823 89.3175 37.0968 89.2103C36.4531 89.0921 36.3353 89.1486 36.2538 89.1453Z" fill="#FCFBFB"/>
<path d="M61.0236 37.7572C54.349 26.1582 40.7997 21.9587 29.2506 27.2778C29.2001 27.1984 29.118 27.1446 28.9931 27.1588C17.4193 28.501 10.7695 39.9454 11.0061 51.7091C11.256 64.15 17.4536 75.1969 29.2354 78.044C39.1246 80.4335 52.3086 78.5229 59.5288 70.2754C66.7814 61.9933 66.3455 47.0063 61.0236 37.7572ZM48.3652 76.3286C36.8991 80.0736 21.5411 78.647 15.2367 66.2762C8.21973 52.5084 11.8751 30.435 28.5877 27.9285C28.642 28.0139 28.725 28.076 28.8309 28.0292C41.2709 22.5393 55.7771 27.3662 61.656 40.6989C64.4767 47.0968 64.9022 55.4053 62.9743 62.1733C60.8662 69.5758 55.0778 74.1363 48.3652 76.3286Z" fill="#FCFBFB"/>
<path d="M19.0819 66.3322C17.6396 64.4673 17.57 62.3686 16.6456 60.3014C16.0017 58.8595 14.8675 58.0908 14.8866 56.3764C15.0154 56.6001 15.1604 56.8126 15.3397 57.0038C15.4656 57.137 15.6583 56.9316 15.5343 56.7963C13.6732 54.7647 15.0488 48.7664 15.4962 46.5274C16.1715 43.1475 17.5032 40.0237 19.1 37.0353C18.9818 37.562 18.9178 38.106 18.936 38.6622C18.9417 38.829 19.1563 38.8208 19.1745 38.6622C19.3633 36.9794 19.8059 35.4673 20.7112 34.1292C20.7475 34.1444 20.7875 34.1465 20.8247 34.116C23.5939 31.8688 27.2322 30.2693 31.106 29.3857C27.4124 29.9744 24.3952 30.978 21.2607 33.3991C21.2645 33.394 21.2673 33.39 21.2721 33.3849C21.3169 33.332 21.2473 33.2578 21.1987 33.3066C21.0422 33.4621 20.8934 33.6259 20.7494 33.7936C20.716 33.8211 20.6826 33.8435 20.6492 33.8709C20.6158 33.8984 20.6034 33.935 20.6044 33.9716C19.9395 34.7942 19.4272 35.7551 19.1544 36.7933C19.1277 36.778 19.0915 36.7801 19.0695 36.8157C16.8335 40.3939 15.4799 44.2954 14.9047 48.557C14.6138 50.7116 13.7419 53.9645 14.7378 56.0978C14.5814 57.2692 14.9601 57.8925 15.5286 59.0029C16.6237 61.1423 16.9318 63.6589 18.2444 65.6733C20.6072 69.3013 23.4289 71.4743 27.1482 73.0056C27.2589 73.0514 27.339 72.8531 27.2293 72.8002C23.9459 71.2079 21.4018 69.3318 19.0819 66.3322Z" fill="#FCFBFB"/>
<path d="M32.5349 29.1762C34.0221 28.983 35.4482 28.7756 36.8371 28.6271C34.9159 28.7024 32.9852 28.9576 31.106 29.3857C31.5724 29.3115 32.0446 29.2403 32.5349 29.1762Z" fill="#FCFBFB"/>
<path d="M57.553 38.9713C56.6649 37.7552 56.0706 36.3367 55.1778 35.1714C54.4747 34.2543 53.29 33.8272 52.3714 33.2527C51.5396 32.7321 51.1008 31.9572 50.3653 31.3776C49.8149 30.9445 49.1366 30.8092 48.4632 30.6567C44.5798 28.2682 40.8719 28.195 36.8359 28.6271C40.5209 28.4827 44.1439 29.0054 47.2145 30.2754C47.1115 30.254 47.0314 30.4005 47.1382 30.4584C48.1904 31.0268 49.4114 30.8947 50.226 31.8464C50.641 32.3314 50.724 32.7178 51.2114 33.1002C51.8372 33.5923 52.7606 33.755 53.435 34.2075C54.3183 34.8003 54.8697 35.6849 55.4449 36.5309C56.0649 37.442 56.6945 38.2646 57.4529 39.0781C57.5187 39.1483 57.6064 39.0456 57.553 38.9713Z" fill="#FCFBFB"/>
<path d="M60.1544 59.0639C60.1906 59.0303 60.2078 58.9693 60.1687 58.9164C60.1534 58.8961 60.1334 58.8829 60.1172 58.8625C60.1162 58.8585 60.1162 58.8564 60.1153 58.8524C60.1029 58.8036 60.0714 58.7853 60.0371 58.7782C59.3769 58.0226 58.3954 57.7959 57.616 58.164C50.5075 55.3504 43.272 52.8714 36.1454 50.0985C35.9374 50.0171 35.8592 50.3598 36.0557 50.4462C41.9585 53.0676 48.1036 55.5619 54.305 57.4298C53.9072 58.1253 53.8061 58.9571 54.1362 59.7197C54.4366 60.4142 55.1816 61.1331 55.9429 61.068C56.1012 61.0548 56.21 60.7986 56.0335 60.7122C55.4611 60.4315 54.9355 60.2861 54.5721 59.674C54.1762 59.008 54.2296 58.1874 54.5616 57.5102C54.8087 57.5844 55.0567 57.6485 55.3047 57.7196C55.2923 57.7206 55.2799 57.7176 55.2665 57.7267C55.0643 57.8579 54.9661 57.9952 54.8907 58.2341C54.8726 58.2901 54.9031 58.347 54.946 58.3775C55.1072 58.4955 55.2675 58.6134 55.4287 58.7304C55.5203 58.7975 55.6367 58.6399 55.5489 58.5646C55.2704 58.3287 55.0691 58.2331 55.381 57.8833C55.4239 57.8345 55.4049 57.7695 55.3648 57.7359C56.0383 57.9311 56.7108 58.1284 57.3842 58.3063C57.0504 58.5321 56.7651 58.8697 56.5906 59.3588C56.291 60.1966 56.3635 61.0131 55.5985 61.6924C55.4068 61.8632 54.9479 61.9181 54.7228 62.0859C53.7594 62.8017 53.4942 64.0067 52.9256 64.9595C52.9161 64.8974 52.8493 64.8385 52.7892 64.8812C51.0378 66.1146 49.5288 65.4384 48.2934 67.4792C47.1802 69.3176 45.6769 69.9653 43.6317 70.5286C42.9229 70.7239 42.1808 71.0604 41.4348 71.3401C40.2157 71.3645 39.0996 70.6578 37.8261 70.795C35.8258 71.0106 34.3072 71.7061 32.5224 71.3563C31.5809 70.2093 30.2196 69.7853 28.8059 69.3979C29.2047 68.1401 30.2788 67.1507 31.5942 67.4517C33.0995 67.7964 33.6699 69.6033 32.7132 70.8621C32.5453 71.0828 32.8296 71.4011 33.0118 71.1804C34.0658 69.9053 33.6213 67.8778 32.1494 67.2229C30.5735 66.5223 28.9586 67.6601 28.6247 69.3471C27.1957 68.9586 25.7296 68.5804 24.6011 67.5117C23.4898 66.4603 22.327 65.0276 21.3712 63.8125C19.5759 61.5297 19.118 58.6409 18.5256 55.809C18.5266 55.8049 18.5304 55.8049 18.5314 55.8009C19.4967 52.064 18.5857 47.9072 20.2055 44.4205C21.2977 42.0686 23.361 40.4051 23.5079 37.9087C24.7089 36.9 25.8889 36.0235 27.0889 35.2731C26.8237 36.4842 29.0883 36.9834 29.8629 36.8228C31.3996 36.5045 31.5685 34.7006 31.0543 33.393C32.5014 32.9303 34.0324 32.666 35.7237 32.665C37.6487 32.6629 39.7569 33.3483 41.6952 33.151C42.4154 34.4261 43.6899 34.1871 45.0406 34.2695C46.9436 34.3844 48.5748 35.2019 50.0982 36.3642C50.6162 36.7597 51.655 37.3515 52.462 37.9464C51.2792 38.2473 50.5409 39.8682 50.9196 41.0568C50.9863 41.2673 51.283 41.1829 51.2334 40.9643C51.0894 40.3308 51.2239 39.7075 51.5806 39.1808C51.9298 38.6653 52.3771 38.4649 52.9275 38.3165C53.1975 38.5504 53.4064 38.7781 53.5066 38.9886C53.2881 39.1442 53.2109 39.4401 53.3578 39.7248C53.4045 39.8143 53.4703 39.8885 53.5457 39.9556C50.786 41.4148 47.9872 42.8668 45.2276 44.3951C45.2609 44.3158 45.2533 44.2172 45.1617 44.1511C44.2059 43.4616 42.7321 43.1597 41.7534 43.965C41.0399 44.5517 40.6049 45.8654 41.3556 46.6037C41.3652 46.6128 41.3766 46.6047 41.3881 46.6067C39.6205 47.6673 37.8815 48.7725 36.2016 49.9602C36.1091 50.0253 36.1892 50.1697 36.2875 50.1178C42.2113 46.989 47.8966 43.3498 53.8319 40.2291C53.8614 40.2129 53.8681 40.1864 53.8824 40.1641C54.3288 40.3613 54.9136 40.4091 55.2713 40.4874C55.8408 40.6125 56.52 40.7548 57.0246 40.3491C57.4405 40.0156 57.6008 39.4289 57.3003 38.9612C57.1686 38.7568 56.8815 38.9327 56.9874 39.1564C57.3547 39.9302 56.479 40.2068 56.0364 40.1905C55.7693 40.1803 55.4983 40.1051 55.237 40.0471C55.0042 39.9963 54.7705 39.9465 54.5378 39.8956C54.4443 39.8753 54.3508 39.856 54.2583 39.8356C53.9511 39.8153 53.7889 39.6028 53.7546 39.2174C53.7822 39.1981 53.8032 39.1716 53.7994 39.13C53.7956 39.0933 53.7784 39.0649 53.7737 39.0293C53.7918 38.9906 53.7775 38.9429 53.7441 38.9144C53.3959 37.2458 51.1943 36.6702 50.0153 35.8639C49.1405 35.266 48.1856 34.5837 47.1936 34.2238C45.7579 33.7031 43.1051 34.5064 42.0091 33.1164C42.279 33.0747 42.5452 33.0168 42.8065 32.9314C42.9611 32.8805 42.8971 32.6294 42.7398 32.6731C43.5849 32.4402 34.6964 32.2013 34.8404 32.2064C33.7253 32.1657 33.297 31.8596 32.1685 32.2633C30.316 32.9242 28.0848 33.9939 26.3115 34.9538C24.8272 35.7571 24.6402 36.475 23.5079 37.622C23.5079 37.3515 23.4927 37.0739 23.445 36.7821C23.4335 36.713 23.3219 36.7282 23.3295 36.7984C23.5756 39.0456 21.2118 40.6938 20.4335 42.4052C19.9784 43.4057 19.3565 45.3001 19.159 46.1318C18.4541 49.1122 19.0341 52.2857 18.4436 55.4145C18.3406 54.9356 18.2328 54.4587 18.1107 53.9879C18.0802 53.8709 17.9094 53.9197 17.939 54.0387C18.538 56.4049 18.6544 59.6933 19.6131 61.9069C20.299 63.4891 21.5247 64.0667 22.617 65.356C23.6691 66.5986 24.4733 68.135 25.8994 68.9556C27.9923 70.1595 30.4257 69.6074 32.24 71.2923C31.7831 71.1753 31.3071 70.9882 30.7996 70.7025C30.6995 70.6466 30.6193 70.7961 30.7119 70.8632C31.3586 71.3329 32.0111 71.6227 32.6855 71.7763C32.7847 71.8983 32.8839 72.0244 32.9784 72.1647C33.0051 72.2054 33.0652 72.1698 33.0423 72.125C32.9841 72.0132 32.9164 71.9176 32.8524 71.8159C33.6337 71.9644 34.4455 71.9268 35.3174 71.7336C36.9352 71.3756 38.2459 70.9903 39.9314 71.3553C40.2892 71.4326 40.5667 71.5089 40.8443 71.5444C40.2653 71.7275 39.6891 71.8454 39.1292 71.8027C38.9918 71.7925 38.9966 72.0122 39.1292 72.0285C39.9934 72.1301 40.6669 71.8698 41.3547 71.5566C41.5054 71.5424 41.6656 71.515 41.8488 71.4631C41.9251 71.4417 41.8984 71.3594 41.8402 71.335C42.155 71.1916 42.4822 71.0523 42.8409 70.9435C44.1601 70.5439 45.8133 70.8977 47.0037 69.9917C48.0788 69.1732 48.4661 67.7344 49.4763 66.808C50.5599 65.8146 51.7714 65.9417 52.8589 65.0652C52.5164 65.6031 52.0623 66.0485 51.2992 66.2549C51.1943 66.2834 51.2143 66.4644 51.325 66.4583C53.3406 66.3474 53.3749 63.8704 54.5769 62.6492C55.0767 62.1408 56.0115 62.1428 56.4647 61.5927C56.7279 61.2724 56.6154 61.1382 56.7489 60.7986C57.3814 59.194 58.2485 57.2417 59.9064 58.9276C60.1172 60.0736 59.2281 62.7916 58.7178 63.6467C58.2704 64.3961 58.113 64.9757 57.7496 65.7933C56.6278 68.3191 55.3982 68.1096 53.6249 69.4833C52.2655 70.5368 51.6779 71.6288 49.98 72.2338C50.3892 71.8983 50.7603 71.5221 51.075 71.092C51.1514 70.9882 51.0226 70.8398 50.9348 70.9425C48.7017 73.5954 44.6399 74.0275 41.5235 74.5705C36.5431 75.4379 30.9246 74.8959 26.6234 71.9644C26.549 71.9135 26.4879 72.0345 26.5557 72.0874C30.2206 74.961 35.7075 75.8365 40.1785 75.1755C42.9582 74.7647 46.9503 74.4088 49.5745 72.545C49.5602 72.6111 49.545 72.6772 49.5307 72.7423C49.5211 72.7829 49.5707 72.8033 49.5917 72.7697C49.8464 72.3742 50.806 72.4321 51.2448 72.2206C51.9164 71.8973 52.3151 71.2729 52.8369 70.7483C54.1466 69.4315 56.272 68.9485 57.3899 67.468C57.7782 66.9535 57.7915 66.4511 58.0501 65.8807C58.4822 64.929 59.5143 64.0128 59.7614 62.9441C59.8644 62.4987 59.7061 62.0473 59.7471 61.6049C59.8587 60.3919 60.3204 60.0207 60.1544 59.0639ZM41.4606 46.563C41.4644 46.5508 41.4777 46.5447 41.4739 46.5294C41.1992 45.6692 41.3947 44.7073 42.1684 44.21C43.0727 43.6294 44.1172 44.0545 44.9748 44.4917C44.9977 44.5039 45.0167 44.4947 45.0387 44.4978C43.8348 45.1669 42.6425 45.8553 41.4606 46.563ZM27.2701 35.1603C28.4005 34.4688 29.551 33.8902 30.7643 33.4754C31.0038 34.4139 31.186 35.5863 30.3274 36.2188C29.8657 36.5594 29.2877 36.5584 28.7554 36.4476C28.2393 36.3398 27.0555 35.988 27.2701 35.1603Z" fill="#FCFBFB"/>
<path d="M62.5338 48.7552C62.4489 47.2097 62.0063 45.5319 61.4568 44.1104C60.8969 42.6624 60.1519 39.9271 58.3213 40.8382C58.267 40.8657 58.3003 40.9409 58.3519 40.944C57.9607 41.0345 57.6212 41.2185 57.4895 41.672C57.3903 42.0126 57.4494 42.0492 57.4886 42.1865C57.4342 42.1052 57.3369 42.0533 57.23 42.1153C52.0761 45.0774 46.7713 47.5422 41.3007 49.7639C41.2787 49.7731 41.2682 49.7904 41.2568 49.8066C41.231 49.8016 41.2043 49.7944 41.1786 49.7894C41.003 49.7538 40.9267 50.0263 41.1032 50.0791C46.8982 51.8189 52.6742 53.5384 58.4463 55.3717C58.679 56.4404 59.9811 57.0495 60.9637 56.4608C62.7828 55.3707 62.2858 52.6355 62.0883 50.7411C62.2505 50.5276 62.3926 50.2988 62.4766 50.0263C62.6063 49.6084 62.5577 49.1833 62.5338 48.7552ZM55.0513 45.8268C54.2767 46.4033 53.1845 45.9152 52.802 45.0733C53.6796 44.6157 54.5515 44.1459 55.4157 43.6589C55.7896 44.3737 55.7295 45.3214 55.0513 45.8268ZM48.4121 47.2107C48.4083 47.2595 48.4178 47.3103 48.455 47.3591C50.2207 49.6511 45.7383 51.1946 44.9389 48.6729C46.1074 48.2143 47.2655 47.7262 48.4121 47.2107ZM58.4415 54.6427C58.3957 54.8379 58.3871 55.023 58.4043 55.1989C53.0452 52.9324 47.2922 51.0736 41.625 49.886C42.6466 49.5423 43.6587 49.1681 44.6651 48.7776C44.9608 50.3303 46.8076 50.7838 48.042 50.249C48.6715 49.9764 49.1943 49.4446 49.3173 48.7125C49.4194 48.1085 49.241 47.3673 48.6992 47.0785C50.0356 46.4704 51.3559 45.8207 52.6637 45.1424C52.987 46.2579 54.2739 46.865 55.2469 46.261C56.1435 45.7047 56.3858 44.3219 55.7992 43.4352C56.3467 43.123 56.8933 42.8109 57.4351 42.4875C57.4819 42.46 57.5 42.4184 57.5143 42.3777C57.5143 42.3838 57.5162 42.3848 57.5162 42.3909C57.5229 43.0518 57.4208 43.6111 57.2777 44.2293C56.8141 46.2376 57.7747 48.0343 58.7401 49.7395C58.7439 49.8595 58.7439 49.9805 58.7477 50.1005C58.7859 51.2149 58.5169 52.001 58.3146 53.0798C58.204 53.6706 58.2746 54.1536 58.4415 54.6427ZM61.9204 50.1015C61.6533 50.7411 61.3452 50.8041 61.1001 51.3044C60.7195 52.0803 60.7099 51.6746 60.666 52.5968C60.6594 52.7483 60.8998 52.789 60.9198 52.6334C61.0123 51.9105 61.4731 51.4712 61.8832 50.9943C61.9338 52.0406 62.0292 53.1225 61.9109 54.1404C61.8298 54.8379 61.5656 55.5477 61.0028 55.9635C60.2416 56.5269 59.2142 56.2493 58.8336 55.4683C58.8584 55.4612 58.8775 55.4429 58.867 55.4124C58.7763 55.1592 58.7229 54.9243 58.6895 54.6945C58.6905 54.6701 58.6838 54.6508 58.6867 54.6254C58.6876 54.6142 58.68 54.6081 58.679 54.5979C58.598 53.8994 58.7372 53.2618 58.9032 52.4585C58.9709 52.1321 59.032 51.9664 59.0587 51.6613C59.1713 50.3659 58.9776 48.9362 58.8622 47.6428C58.8527 47.53 58.6953 47.5259 58.6943 47.6428C58.6914 48.2173 58.7134 48.7908 58.7315 49.3643C58.1744 48.0628 57.3397 46.6972 57.3607 45.2929C57.3693 44.6961 57.7824 43.7667 57.9464 43.1088C58.1267 42.3848 56.5642 41.7086 58.5159 41.0975C58.6142 41.067 58.5875 40.9419 58.5064 40.9195C59.7236 40.6877 60.5048 42.6654 60.8912 43.544C61.4845 44.8933 61.8451 46.3118 62.0673 47.7801C62.2104 48.7278 62.2925 49.2118 61.9204 50.1015Z" fill="#FCFBFB"/>
<path d="M54.8401 48.7013C54.3641 47.7892 53.2518 47.4699 52.4381 47.9997C52.4334 48.0007 52.4296 47.9967 52.4238 47.9977C51.3688 48.3271 50.7001 49.4731 51.0702 50.6211C51.4527 51.8067 52.8159 52.1829 53.8251 51.7172C54.9031 51.221 55.4258 49.8239 54.8401 48.7013ZM53.4617 51.3156C52.6575 51.584 51.7074 51.222 51.4594 50.3089C51.2419 49.5056 51.655 48.7878 52.254 48.3525C52.3036 48.4003 52.3742 48.4278 52.442 48.3942C53.1936 48.016 54.1704 48.2153 54.4891 49.1101C54.8172 50.0273 54.3364 51.0248 53.4617 51.3156Z" fill="#FCFBFB"/>
<path d="M58.2553 51.5627C57.64 51.2384 56.7719 51.6624 56.2807 52.0783C55.8533 52.4402 55.1741 53.3025 55.4689 53.9268C55.4841 53.9594 55.5299 53.9635 55.5528 53.938C55.7179 53.753 55.7684 53.4998 55.8791 53.2761C56.026 52.9781 56.2292 52.7138 56.4705 52.4962C56.7309 52.2613 57.0486 52.0833 57.3805 51.9959C57.6581 51.9227 57.9395 51.9623 58.2142 51.8922C58.3516 51.8576 58.3869 51.6319 58.2553 51.5627Z" fill="#FCFBFB"/>
<path d="M57.3156 53.4153C57.0933 53.5323 56.9751 53.3798 56.9598 52.9588C57.0323 52.8693 56.9226 52.7534 56.8386 52.8297C56.3359 53.2893 56.9159 54.0621 57.4243 53.6157C57.5131 53.5384 57.4186 53.3808 57.3156 53.4153Z" fill="#FCFBFB"/>
<path d="M57.558 52.972C57.4798 52.9507 57.4235 53.0768 57.5008 53.1154C57.7335 53.2506 57.8108 53.4438 57.7306 53.697C57.7144 53.814 57.848 53.8862 57.9148 53.7794C58.1256 53.4438 57.8928 53.0646 57.558 52.972Z" fill="#FCFBFB"/>
<path d="M52.6654 50.2215C52.6416 50.1117 52.6168 50.0019 52.5929 49.8921C52.6454 49.9022 52.6673 49.8249 52.6148 49.8056C52.3239 49.7019 51.9404 49.9215 52.052 50.2917C52.1675 50.675 52.6129 50.6486 52.8094 50.375C52.8734 50.2886 52.7474 50.1544 52.6654 50.2215Z" fill="#FCFBFB"/>
<path d="M52.4823 49.0501C52.4347 49.104 52.5072 49.1802 52.5587 49.1314C52.8859 48.8315 53.1739 48.8935 53.422 49.3175C53.4391 49.4721 53.4267 49.6236 53.3838 49.77C53.3542 49.8991 53.5164 49.9713 53.5832 49.8595C54.0248 49.1131 53.0242 48.4471 52.4823 49.0501Z" fill="#FCFBFB"/>
<path d="M54.9024 44.8517C54.7536 44.9971 54.4188 45.0276 54.3501 44.7347C54.3263 44.6351 54.1718 44.6534 54.1784 44.7591C54.209 45.2401 54.8891 45.4495 55.0417 44.9381C55.0694 44.8496 54.9616 44.7947 54.9024 44.8517Z" fill="#FCFBFB"/>
<path d="M47.9283 47.9214C47.873 47.8197 47.7404 47.9092 47.7833 48.0119C47.9074 48.3068 47.7929 48.5468 47.5992 48.7379C47.5143 48.8223 47.624 48.9718 47.7232 48.9087C48.0619 48.6942 48.1201 48.2732 47.9283 47.9214Z" fill="#FCFBFB"/>
<path d="M47.2045 48.7125C46.9316 49.0552 46.3049 48.9016 46.6207 48.3444C46.6836 48.2325 46.531 48.1482 46.4614 48.2447C45.9339 48.9789 47.089 49.6571 47.3781 48.8203C47.4143 48.7186 47.2712 48.6301 47.2045 48.7125Z" fill="#FCFBFB"/>
<path d="M50.9139 58.1284C50.0954 57.3098 48.904 57.3993 48.014 57.9962C47.994 57.9667 47.9615 57.9474 47.9272 57.9616C46.9571 58.3602 46.5469 59.6628 47.0525 60.6399C47.6935 61.8764 49.4134 62.091 50.4732 61.3965C51.5244 60.7081 51.8592 59.075 50.9139 58.1284ZM50.1412 61.0131C49.3104 61.5042 47.9434 61.3538 47.4445 60.3969C47.1555 59.8427 47.2537 59.2001 47.5494 58.6846C47.5857 58.7008 47.6248 58.7049 47.6668 58.6754C48.4547 58.1355 49.4277 57.6505 50.3234 58.2351C51.3498 58.9052 51.119 60.4345 50.1412 61.0131Z" fill="#FCFBFB"/>
<path d="M42.4653 56.3143C41.8367 55.449 40.6328 55.1948 39.6827 55.5812C39.6455 55.5649 39.6035 55.5609 39.5635 55.5944C39.5435 55.6107 39.5291 55.632 39.5101 55.6493C39.3765 55.7174 39.2477 55.7988 39.1295 55.8944C39.0541 55.9554 39.0589 56.0693 39.1123 56.1293C38.6363 56.897 38.6058 57.9413 39.1619 58.712C39.8392 59.6495 41.1861 59.9088 42.1104 59.2438C43.0558 58.5646 43.1426 57.2468 42.4653 56.3143ZM41.8195 58.9072C41.044 59.4207 39.9174 59.1452 39.4175 58.3327C38.995 57.6464 39.0903 56.7475 39.4967 56.0815C40.3171 55.8232 41.2109 55.63 41.9225 56.3103C42.6647 57.021 42.7143 58.3144 41.8195 58.9072Z" fill="#FCFBFB"/>
<path d="M43.0577 64.3219C42.2078 63.7647 40.7473 64.0138 40.1445 64.9239C39.3365 65.4496 39.1429 66.7155 39.7419 67.5686C40.6081 68.8031 42.6781 69.0542 43.6339 67.8147C44.4428 66.7653 44.1366 65.0296 43.0577 64.3219ZM43.4879 67.168C42.928 68.3475 41.3903 68.3831 40.4593 67.6845C39.8478 67.226 39.636 66.3311 39.8955 65.6509C39.9365 65.7688 40.0825 65.8085 40.1702 65.6834C40.7493 64.8618 41.4971 64.147 42.5474 64.5405C43.4879 64.8944 43.9267 66.2447 43.4879 67.168Z" fill="#FCFBFB"/>
<path d="M33.6501 56.5522C32.844 55.9726 31.6011 56.178 31.0802 57.0352C30.1549 57.7521 29.9146 59.1696 30.7111 60.1477C31.623 61.2683 33.2418 61.1046 34.066 59.9566C34.7891 58.9509 34.6774 57.2915 33.6501 56.5522ZM33.8227 59.5112C33.2685 60.4904 31.9464 60.7965 31.1384 59.9932C30.4516 59.3099 30.4497 58.3124 30.92 57.5711C30.9696 57.6402 31.0802 57.6575 31.1337 57.566C31.6106 56.7556 32.6246 56.3479 33.4145 56.9356C34.1681 57.4948 34.2778 58.7079 33.8227 59.5112Z" fill="#FCFBFB"/>
<path d="M33.3 48.4054C32.6113 47.838 31.4313 48.018 31.0316 48.8742C30.339 49.3186 30.1511 50.3689 30.6662 51.0807C31.3235 51.9867 32.6208 52.0121 33.3839 51.2526C34.1604 50.4808 34.1614 49.1152 33.3 48.4054ZM33.1817 50.9068C32.6513 51.4895 31.7575 51.5932 31.1594 51.0634C30.5918 50.5601 30.589 49.7232 31.0516 49.1955C31.106 49.222 31.1699 49.223 31.2128 49.1681C31.6383 48.619 32.2669 48.2031 32.9346 48.6119C33.714 49.0887 33.7798 50.25 33.1817 50.9068Z" fill="#FCFBFB"/>
<path d="M37.1967 40.8789C36.7017 39.8641 35.1945 39.4116 34.3693 40.2342C34.335 40.2688 34.3312 40.3135 34.3388 40.3562C33.5928 40.5545 33.0577 41.4168 33.2552 42.2801C33.5537 43.5857 35.1267 44.1195 36.2104 43.6823C37.2397 43.2674 37.708 41.9262 37.1967 40.8789ZM36.3563 43.1027C35.6495 43.603 34.5687 43.4413 33.9849 42.8017C33.2323 41.975 33.7474 40.3532 34.9331 40.5138C35.0256 40.526 35.0437 40.3634 34.955 40.342C35.5522 40.1956 36.1589 40.2149 36.6282 40.7691C37.1891 41.429 37.0546 42.6075 36.3563 43.1027Z" fill="#FCFBFB"/>
<path d="M41.001 36.593C40.9619 36.593 40.9619 36.657 41.001 36.657C41.0401 36.657 41.0401 36.593 41.001 36.593Z" fill="#FCFBFB"/>
<path d="M44.2623 34.5328C44.1459 34.362 43.9189 34.4657 43.9494 34.6732C44.0296 35.2192 44.1154 35.6747 43.8168 36.1781C43.5078 36.6977 42.9459 36.9295 42.386 36.8105C41.1945 36.5573 40.8721 35.0148 41.6915 34.1363C41.7869 34.0346 41.6438 33.8851 41.5446 33.9797C40.4572 35.0128 40.8759 36.9631 42.3497 37.2488C43.0051 37.3759 43.6785 37.1339 44.0839 36.5604C44.4569 36.0296 44.6563 35.1073 44.2623 34.5328Z" fill="#FCFBFB"/>
<path d="M28.0059 41.9994C27.4355 41.3263 26.3308 41.2195 25.6526 41.7533C24.567 41.551 24.3133 43.2359 24.6329 44.0514C25.127 45.3163 26.5445 45.8176 27.6377 45.0753C28.6088 44.4174 28.7757 42.9064 28.0059 41.9994ZM27.6854 44.5049C27.0663 45.1536 26.0179 45.1679 25.396 44.5273C24.879 43.9944 24.4793 42.1763 25.4437 41.9476C25.3645 42.0411 25.292 42.1428 25.2367 42.2628C25.1728 42.4 25.3273 42.5343 25.437 42.4275C26.0342 41.8418 26.9261 41.4849 27.6243 42.1519C28.2444 42.7437 28.2787 43.8816 27.6854 44.5049Z" fill="#FCFBFB"/>
<path d="M25.5183 52.6039C25.1358 52.1168 24.5301 51.8026 23.9263 51.9155C23.4111 52.0121 23.0725 52.4493 22.6766 52.7859C22.5335 52.79 22.4114 52.8947 22.3161 53.035C22.2789 53.0554 22.2436 53.0788 22.2044 53.0961C22.1129 53.1347 22.1005 53.277 22.1768 53.3228C21.9784 53.8394 22.0385 54.4749 22.2636 54.967C22.8035 56.1506 24.1867 56.4587 25.1892 55.7327C26.1651 55.024 26.2576 53.5455 25.5183 52.6039ZM23.4255 55.6412C22.9733 55.4653 22.628 55.0351 22.4668 54.5593C22.4277 54.4433 22.3323 53.7316 22.4181 53.2821C22.9084 53.1347 23.1746 52.6507 23.6258 52.3792C24.8172 51.6644 25.9075 53.2933 25.6366 54.4383C25.4048 55.4185 24.3031 55.9828 23.4255 55.6412Z" fill="#FCFBFB"/>
<path d="M23.7114 53.1916C23.4357 52.8815 22.9597 53.1652 22.9988 53.5719C23.0036 53.6238 23.0771 53.6258 23.0761 53.5719C23.2097 53.2018 23.4014 53.1022 23.6523 53.273C23.7 53.3065 23.7486 53.2333 23.7114 53.1916Z" fill="#FCFBFB"/>
<path d="M24.3493 53.9624C24.315 54.0417 24.2769 54.118 24.2349 54.1922C24.1595 54.4434 24.0374 54.4484 23.8676 54.2064C23.942 54.1749 23.9144 54.0509 23.8342 54.0753C23.5938 54.1475 23.6129 54.48 23.7961 54.6244C24.1681 54.9182 24.4419 54.3285 24.4943 54.0265C24.5087 53.94 24.3923 53.8709 24.3493 53.9624Z" fill="#FCFBFB"/>
<path d="M24.1471 53.0025C24.086 53.0097 24.0841 53.1113 24.1471 53.1062C24.7147 53.0605 25.1363 53.633 24.9875 54.2085C24.9646 54.2949 25.0877 54.3305 25.1134 54.2451C25.3137 53.5872 24.7881 52.9242 24.1471 53.0025Z" fill="#FCFBFB"/>
<path d="M31.7984 67.8757C31.3863 67.6774 30.9428 67.8838 30.6928 68.2529C30.6614 68.196 30.5736 68.1919 30.545 68.2713C30.3571 68.7868 31.1078 69.1874 31.3692 68.6973C31.4264 68.5895 31.289 68.4716 31.206 68.5631C31.0658 68.7176 30.7873 68.6282 30.7253 68.4339C30.7529 68.435 30.7806 68.4278 30.8016 68.3973C31.0134 68.075 31.4569 67.9174 31.7841 68.1492C32.0817 68.3597 32.077 68.6902 32.0989 69.0227C32.1046 69.1081 32.2115 69.1488 32.2553 69.0674C32.4843 68.6444 32.1886 68.0638 31.7984 67.8757Z" fill="#FCFBFB"/>
<path d="M32.3135 69.405C32.0703 69.6694 31.6725 69.7772 31.4225 69.4304C31.3605 69.344 31.2241 69.4192 31.2804 69.5189C31.5399 69.9714 32.2353 70.0629 32.4823 69.5433C32.5348 69.4314 32.4022 69.3084 32.3135 69.405Z" fill="#FCFBFB"/>
<path d="M32.8019 59.2865C32.6321 59.6709 32.0178 59.8031 31.848 59.314C31.8127 59.2123 31.66 59.253 31.6925 59.3597C31.8737 59.9485 32.8162 60.0136 32.9459 59.3516C32.9631 59.2641 32.8419 59.195 32.8019 59.2865Z" fill="#FCFBFB"/>
<path d="M31.2881 58.4538C31.2089 58.5524 31.3406 58.6968 31.4235 58.5982C31.7116 58.2535 32.1819 58.5951 32.1581 58.9947C32.1514 59.1127 32.3097 59.1239 32.3422 59.0212C32.5377 58.405 31.6582 57.9921 31.2881 58.4538Z" fill="#FCFBFB"/>
<path d="M33.2476 58.4599C32.8956 58.3978 32.6238 58.0887 32.7316 57.6911C32.7802 57.5132 32.537 57.4512 32.4759 57.6159C32.2756 58.1609 32.64 58.7964 33.2095 58.7649C33.363 58.7558 33.4184 58.4893 33.2476 58.4599Z" fill="#FCFBFB"/>
<path d="M41.3328 66.2294C41.267 66.1999 41.2184 66.3219 41.2842 66.3535C41.5274 66.4785 41.6114 66.6707 41.5379 66.93C41.515 67.053 41.6839 67.1059 41.7154 66.9819C41.8041 66.6433 41.6238 66.3596 41.3328 66.2294Z" fill="#FCFBFB"/>
<path d="M41.4758 65.6976C40.9293 65.6447 40.3474 66.2192 40.5181 66.8212C40.5381 66.8934 40.6374 66.8954 40.6574 66.8212C40.7909 66.324 40.9922 66.0128 41.5054 65.9254C41.6342 65.904 41.5894 65.7088 41.4758 65.6976Z" fill="#FCFBFB"/>
<path d="M42.9314 66.0098C42.8255 65.9854 42.7025 65.9864 42.6033 65.9457C42.506 65.9427 42.4363 65.8847 42.3934 65.7729C42.1826 65.6417 42.2045 65.54 42.4583 65.4668C42.5413 65.4983 42.6004 65.3529 42.5193 65.3133C42.2513 65.1841 41.9937 65.4261 42.0042 65.7342C42.0214 66.2183 42.589 66.3006 42.9314 66.2233C43.0306 66.201 43.0297 66.0322 42.9314 66.0098Z" fill="#FCFBFB"/>
<path d="M40.048 57.7389C39.9612 57.7796 40.0232 57.9362 40.1129 57.9026C40.2398 57.8233 40.3581 57.8599 40.4725 57.9707C40.4096 57.9596 40.3409 58.0297 40.3771 58.1111C40.4878 58.3571 40.8083 58.1975 40.8455 57.9677C40.9256 57.4786 40.2684 57.6362 40.048 57.7389Z" fill="#FCFBFB"/>
<path d="M40.5537 56.9142C40.1129 56.6987 39.6217 56.9356 39.4347 57.4033C39.3994 57.4918 39.5177 57.5721 39.5587 57.4806C39.7381 57.0861 40.1082 56.9641 40.4869 57.081C40.5785 57.1095 40.6433 56.959 40.5537 56.9142Z" fill="#FCFBFB"/>
<path d="M41.3454 56.7374C41.251 56.6703 41.167 56.8126 41.2319 56.895C41.4771 57.2061 41.5486 57.6149 41.2891 57.9494C41.2243 58.0338 41.3254 58.1477 41.4027 58.0704C41.7756 57.7013 41.7861 57.0495 41.3454 56.7374Z" fill="#FCFBFB"/>
<path d="M48.8957 60.0888C48.5294 60.345 47.9446 60.1986 47.8903 59.6719C47.8798 59.5672 47.7443 59.5651 47.7357 59.6719C47.6804 60.3776 48.62 60.826 49.0235 60.2261C49.0798 60.1437 48.972 60.0349 48.8957 60.0888Z" fill="#FCFBFB"/>
<path d="M48.343 59.253C48.2887 59.3384 48.4127 59.4401 48.4775 59.3638C48.696 59.1056 49.0155 59.2662 49.1157 59.5387C49.1596 59.6557 49.3332 59.6496 49.3332 59.5072C49.3332 58.948 48.6082 58.8331 48.343 59.253Z" fill="#FCFBFB"/>
<path d="M50.1185 59.5702C49.9096 59.857 49.6854 60.0888 49.3735 60.2464C49.2733 60.2973 49.3439 60.4803 49.4498 60.4396C49.8161 60.2962 50.1042 60.0847 50.3054 59.7248C50.3722 59.6038 50.2034 59.4543 50.1185 59.5702Z" fill="#FCFBFB"/>
<path d="M56.2219 58.7446C56.1093 58.8198 56.032 58.8971 55.951 59.01C55.9014 59.0791 55.8622 59.1554 55.8165 59.2276C55.7907 59.2794 55.7583 59.3272 55.7211 59.3709C55.6419 59.5377 55.5131 59.5265 55.3347 59.3384C55.4111 59.2367 55.2861 59.0944 55.1974 59.192C54.9894 59.4187 55.1125 59.7878 55.4063 59.8529C55.8947 59.9607 56.1255 59.2306 56.3774 58.9581C56.4756 58.8503 56.3468 58.6612 56.2219 58.7446Z" fill="#FCFBFB"/>
<path d="M32.6358 50.1849C32.6482 50.4676 32.5175 50.674 32.2418 50.8042C32.1665 50.8275 32.198 50.9445 32.2743 50.9282C32.6501 50.8479 32.8686 50.5632 32.8075 50.1595C32.7903 50.0548 32.6368 50.0842 32.6358 50.1849Z" fill="#FCFBFB"/>
<path d="M31.9839 50.3832C31.7549 50.3324 31.6099 50.4208 31.5537 50.6669C31.5279 50.7818 31.6824 50.8255 31.7187 50.7157C31.7998 50.6638 31.8809 50.611 31.961 50.5591C32.0554 50.5672 32.0764 50.4035 31.9839 50.3832Z" fill="#FCFBFB"/>
<path d="M32.1656 49.3918C32.0063 49.5697 31.8947 49.4568 31.8318 49.0532C31.8966 48.982 31.8012 48.8884 31.7325 48.9464C31.2165 49.3826 31.9128 50.0781 32.2877 49.5209C32.3373 49.4467 32.2362 49.3348 32.1656 49.3918Z" fill="#FCFBFB"/>
<path d="M26.8944 43.669C26.7885 43.8378 26.6836 44.0076 26.5787 44.1764C26.5043 44.2964 26.6779 44.394 26.7552 44.2862C26.8725 44.1246 26.9898 43.9629 27.1062 43.8002C27.1997 43.669 26.9831 43.5277 26.8944 43.669Z" fill="#FCFBFB"/>
<path d="M26.1122 42.8993C26.136 43.2145 26.0015 43.362 25.7087 43.3406C25.474 43.5135 25.2975 43.4647 25.1802 43.1932C25.1526 43.1464 25.0867 43.1871 25.1106 43.2369C25.4225 43.8846 26.3583 43.665 26.2667 42.8993C26.2534 42.7966 26.1208 42.7925 26.1122 42.8993Z" fill="#FCFBFB"/>
<path d="M27.1768 42.8485C26.8639 42.9247 26.5348 42.6288 26.6636 42.277C26.698 42.1824 26.5596 42.1265 26.5139 42.2099C26.2382 42.7102 26.7657 43.3864 27.2636 43.0681C27.3743 42.9969 27.3008 42.8179 27.1768 42.8485Z" fill="#FCFBFB"/>
<path d="M28.3673 34.7088C28.2929 34.603 28.1251 34.6996 28.1966 34.8155C28.4637 35.2456 28.375 35.6158 28.1861 36.055C28.1384 36.1659 28.2586 36.2798 28.3492 36.1893C28.7394 35.7988 28.664 35.1318 28.3673 34.7088Z" fill="#FCFBFB"/>
<path d="M29.8591 34.9792C29.4975 35.0301 29.052 34.7586 29.1789 34.2878C29.2085 34.18 29.0597 34.1403 29.0234 34.242C28.826 34.7962 29.3687 35.4734 29.902 35.149C29.9707 35.1074 29.9468 34.967 29.8591 34.9792Z" fill="#FCFBFB"/>
<path d="M29.5547 35.4134C29.1198 35.447 28.9051 35.9696 29.1522 36.3469C29.1942 36.4099 29.2857 36.355 29.2505 36.2859C29.0816 35.9534 29.3048 35.6626 29.5776 35.5965C29.673 35.5741 29.654 35.4063 29.5547 35.4134Z" fill="#FCFBFB"/>
<path d="M35.6703 41.4615C35.4567 41.7432 34.9673 41.7726 34.8547 41.3507C34.8271 41.2459 34.683 41.2897 34.7031 41.3954C34.8051 41.9333 35.5921 42.1214 35.8134 41.5784C35.8497 41.4879 35.7409 41.368 35.6703 41.4615Z" fill="#FCFBFB"/>
<path d="M35.4303 40.8148C35.3435 40.8504 35.3768 40.9958 35.4694 40.9663C35.8891 40.8341 36.2068 41.1534 36.2945 41.5632C36.3174 41.6689 36.4605 41.6394 36.4662 41.5388C36.4958 40.9622 35.9044 40.6226 35.4303 40.8148Z" fill="#FCFBFB"/>
<path d="M35.7745 42.4793C35.619 42.7854 35.1897 42.8484 35.0028 42.522C34.9532 42.4346 34.8005 42.4926 34.8406 42.5953C35.0505 43.1382 35.8079 43.1443 35.9987 42.581C36.0454 42.4407 35.8403 42.3502 35.7745 42.4793Z" fill="#FCFBFB"/>
<path d="M42.2269 45.0072C41.8721 45.2543 41.9331 45.7251 42.2116 46.0129C42.2794 46.083 42.4024 45.9905 42.3461 45.902C42.1868 45.6529 42.266 45.415 42.3814 45.1709C42.4272 45.0713 42.3271 44.9371 42.2269 45.0072Z" fill="#FCFBFB"/>
<path d="M42.2897 44.447C42.1953 44.4775 42.2354 44.6198 42.3298 44.6025C42.7848 44.5151 42.9222 44.9147 42.9642 45.2696C42.9756 45.3672 43.1149 45.4435 43.1645 45.3275C43.4049 44.7622 42.7753 44.2893 42.2897 44.447Z" fill="#FCFBFB"/>
<path d="M52.3401 39.9017C52.2619 39.8702 52.1847 39.8387 52.1064 39.8071C52.0616 39.6272 51.8012 39.7034 51.8441 39.8844C51.9281 40.2362 52.282 40.3308 52.5367 40.1122C52.6759 39.9922 52.4785 39.7807 52.3401 39.9017Z" fill="#FCFBFB"/>
<path d="M52.3498 38.716C52.2192 38.6469 52.1066 38.8462 52.2344 38.9265C52.5025 39.0933 52.6322 39.3485 52.6522 39.6759C52.6618 39.8305 52.865 39.8295 52.8774 39.6759C52.9126 39.2418 52.7114 38.9082 52.3498 38.716Z" fill="#FCFBFB"/>
<path d="M42.8506 35.8374C42.5034 36.057 42.1123 35.8923 41.9358 35.5293C41.8814 35.4175 41.7546 35.4754 41.7355 35.574L41.6372 35.5751C41.5981 35.5751 41.5981 35.6391 41.6372 35.6391C41.6706 35.6391 41.705 35.6401 41.7384 35.6401C41.7393 35.6442 41.7374 35.6473 41.7384 35.6513C41.9702 36.1801 42.5196 36.3407 43.0061 36.1201C43.1845 36.0408 43.0261 35.7266 42.8506 35.8374Z" fill="#FCFBFB"/>
<path d="M42.9976 34.9498C42.6818 34.7372 42.3394 34.7749 42.0704 35.0484C41.9683 35.1521 42.1171 35.3016 42.222 35.2101C42.4748 35.0362 42.6866 35.0352 42.8554 35.2091C42.9985 35.3219 43.153 35.0545 42.9976 34.9498Z" fill="#FCFBFB"/>
</svg>
