<svg width="110" height="72" viewBox="0 0 110 72" fill="none" xmlns="http://www.w3.org/2000/svg">
<path d="M55.0483 32.0994C54.9722 35.5871 54.4804 37.1181 53.3729 39.4318C53.0691 40.0659 52.6609 40.7697 52.5106 40.9201C52.1287 41.3004 51.7043 41.0699 51.5298 40.3881C51.1876 39.0472 51.7096 37.1224 51.9677 36.9078C52.0505 36.8381 52.1159 36.7329 52.1159 36.6681C52.1159 36.6033 52.1408 36.5299 52.1718 36.5018C52.2991 36.3856 52.291 35.1102 52.6777 34.8436C52.8603 34.717 52.9337 33.9105 53.0422 33.6574C53.088 33.5485 54.2851 30.0046 54.4622 29.8304C54.8664 29.4323 55.1676 26.6393 55.0483 32.0994ZM84.2833 27.4133C84.2125 27.7337 84.2233 27.258 83.6029 27.9912C83.5112 28.0988 80.9399 30.9163 80.6765 30.975C80.3039 31.0594 79.507 30.5152 79.4437 30.1336C79.2139 28.7469 82.401 25.7398 83.5672 24.8245C85.0943 23.6267 84.9408 23.3075 84.8855 24.2956C85.0836 24.2956 84.3082 27.3027 84.2833 27.4133ZM92.5067 8.97779C92.7283 9.064 92.4353 8.97901 92.1806 9.11231C91.639 9.39418 91.8909 8.73627 92.5067 8.97779ZM94.4185 8.41404C94.8436 8.75461 90.4857 8.54305 91.542 8.37062C91.796 8.32843 94.7473 8.41404 94.4185 8.41404ZM73.184 8.39324C73.4966 8.78457 73.3612 9.05238 72.9913 9.78122C72.7171 10.3236 72.8007 10.3486 72.4767 10.9766C72.125 11.659 72.2813 11.5715 72.1843 11.7097C72.0475 11.9023 71.8845 11.1833 71.8495 10.85C71.7316 9.74453 72.6296 8.17007 72.9233 8.17007C72.9698 8.17007 73.0856 8.26973 73.184 8.39324ZM61.1908 10.474C60.7165 10.9674 63.2414 5.34522 63.2414 5.56472L63.7743 4.70014C63.7743 4.5106 64.5328 3.78298 64.5934 4.2648C65.0468 4.2648 62.3731 9.24743 61.1908 10.474ZM57.9323 7.20338C56.6388 9.95915 50.9733 23.3442 49.9932 27.0239C48.9914 30.7891 46.5487 36.3606 48.1029 40.2053C49.9554 44.7887 54.1867 41.6177 54.1867 41.4924C54.1867 41.4478 54.2635 41.3548 54.3639 41.2772C54.6145 41.0846 54.471 41.0583 54.7 40.7856C55.2666 40.1099 55.1446 39.899 55.3663 39.4587C56.11 37.9784 55.7907 37.8506 56.0366 36.9879C56.7783 34.3789 56.6011 32.7904 56.4388 27.7759C56.3593 25.3363 55.7294 25.8322 56.4967 23.8334C56.7857 23.0801 58.7279 22.0908 59.6137 21.3069C62.8278 18.4625 60.0186 21.1724 59.7875 24.9829C59.739 25.7894 60.1237 27.7001 60.9146 28.5543C61.2568 28.9254 61.6671 29.0814 62.301 29.0814C67.218 29.0814 70.7763 17.8308 72.2375 13.5416C72.4436 12.9338 72.4483 13.5232 74.0894 13.2255C75.6934 12.935 77.3755 12.7846 77.4287 12.9289C77.5945 13.374 66.8772 22.1103 70.4846 28.8178C71.4756 30.6607 73.2285 30.4088 73.155 30.3006C73.1321 30.2657 73.2076 30.2572 73.3672 30.2749C73.9048 30.336 74.7226 29.9056 74.7226 29.7148C74.7226 29.6512 74.9005 29.5907 74.9005 29.661C74.9005 30.0915 77.7696 26.9254 77.7965 26.0731C77.8006 25.9453 77.9778 25.7796 77.9475 25.7343L77.9629 25.6805C77.9912 25.6805 78.0728 25.5845 78.1489 25.461C78.7026 24.5646 79.5926 24.4741 82.0238 20.1164C82.4071 19.4285 82.7608 19.0207 82.9723 19.0207C83.0929 19.0207 84.2671 21.0427 84.6949 22.5224C81.8648 24.8661 78.8131 26.871 77.68 30.193C77.6052 30.4125 77.5203 30.5152 77.6342 30.5152C77.7413 30.5152 77.8774 30.7133 77.8006 30.7561C77.713 30.8044 77.771 31.115 77.8774 31.17C78.0061 31.2367 77.8888 31.3834 77.9865 31.3639C78.0755 31.3461 78.0249 31.5235 78.161 31.5626L78.2412 31.6457L78.2708 31.6971C78.3577 31.6971 78.3099 31.8585 78.3894 31.8585C78.4985 31.8585 78.4648 32.0976 78.6023 32.0511C78.7343 32.0071 78.4864 32.141 78.9243 32.3672C79.0961 32.4559 79.6727 32.7885 79.7563 32.7414C79.8472 32.6907 79.957 32.8515 80.0399 32.8038C80.1241 32.7555 80.3956 33.1059 81.0072 32.9756C81.4094 32.89 82.0743 32.9316 82.4751 32.8221C83.5793 32.5219 83.0538 32.9958 83.5759 32.6369C84.3648 32.0945 84.3951 32.3122 85.1267 31.4984C87.1773 29.2165 86.8021 28.8087 87.0379 28.6362C87.1531 28.5518 87.277 27.1309 87.3221 27.1309C87.6408 27.1309 86.9112 22.8043 86.6087 22.2809C86.4093 21.9367 88.8062 20.0534 89.139 19.8156C89.649 19.4518 89.3883 19.4426 89.7015 19.2537C89.938 19.11 90.0215 18.9736 89.8255 19.0507C89.7702 19.0727 89.6719 19.0947 89.6065 19.1002C88.6816 19.1766 86.3116 21.3002 86.189 21.2629C86.0968 21.2353 85.9688 20.83 85.896 20.8012L85.7956 20.5377C85.0627 19.2451 84.0657 18.0094 84.2327 17.8993C84.358 17.8168 86.0853 15.9672 86.0853 15.7165C86.0853 15.5343 86.247 15.1209 86.4087 14.8898C86.7954 14.3365 87.1281 12.9791 86.9334 12.7467C86.6754 12.4379 87.1254 12.4275 86.9705 12.1665C86.8587 11.9787 87.0217 11.9176 87.2245 11.9512C87.599 12.0136 87.0129 11.7335 88.3576 11.5782C88.6304 11.5464 88.7133 11.5153 88.7348 11.4358C88.7611 11.3379 88.885 11.289 89.1451 11.2725C89.2219 11.2676 89.2812 11.245 89.2812 11.2212L89.364 11.1777C89.5257 11.1777 89.4307 10.9858 89.6456 11.0353C89.903 11.0958 90.836 10.6978 92.477 10.5657C93.4235 10.4893 93.3413 10.3902 93.1722 10.8286C93.1042 11.0041 90.3435 15.6034 89.7649 22.0816C89.5345 24.6594 89.9272 27.7227 92.5242 28.7824C94.944 29.7692 99.8139 25.0764 100.735 20.4032C101.109 18.512 101.701 17.0867 100.112 17.0867C99.6401 17.0867 99.7115 16.9608 99.339 18.8593C98.8337 21.4377 96.6329 25.7496 95.8891 26.5726C93.6566 29.0465 93.4808 28.4155 92.894 27.3167C92.7647 27.0752 92.6421 26.8092 92.6192 26.723C92.2271 25.2574 93.9402 19.2213 94.0453 19.028C94.081 18.9632 97.3712 11.0286 97.5369 10.466C97.6797 9.97993 97.803 10.1212 97.803 10.0606C97.803 9.73475 101.806 9.36238 101.621 9.08295C101.523 8.93437 103.947 8.98145 105.225 8.51248C105.897 8.26607 106.545 8.27341 106.621 8.17496C106.749 8.00621 109.284 8.03922 109.269 7.9952C109.208 7.81238 108.453 7.94811 108.988 7.4877C108.36 7.18504 109.055 7.50727 104.597 7.41922C98.187 7.29326 98.1129 7.64423 97.8205 7.09027C97.1981 5.90774 95.4209 5.88695 95.5166 6.3382C95.5819 6.64269 94.6031 8.2948 94.3114 8.32232C93.5859 8.3908 94.5162 8.08753 92.4824 8.06001C91.7623 8.05023 92.1025 7.93344 90.778 7.90959C89.232 7.88269 89.362 7.72127 89.9083 7.63567C90.1333 7.60021 90.0148 7.58798 89.3755 7.5837C88.6068 7.57759 88.3987 7.52867 88.8076 7.45041C89.0642 7.40149 81.8244 7.80687 81.8244 7.56841L82.4576 7.44552C82.6523 7.40394 82.6234 7.31038 82.4159 7.31038C81.4566 7.31038 79.5905 7.73778 78.9189 7.47548C77.9609 7.10127 78.8502 9.58066 80.2736 10.1921C80.6468 10.3529 81.4222 10.8714 81.6708 10.8769C81.7887 10.88 81.8837 10.9002 81.8837 10.9228L81.9726 10.9631C82.1363 10.9631 81.7409 11.0665 82.9373 11.3428C83.3381 11.4358 83.2337 11.511 83.3011 11.4761L83.4048 11.522C83.4877 11.6528 83.9902 11.8656 84.1499 11.8381C84.4315 11.7886 84.513 12.145 84.9023 12.145C85.5531 12.145 82.2481 14.924 82.24 17.1026C82.2367 17.848 81.5044 18.3995 81.623 18.4967C81.6398 18.5101 81.5846 18.5609 81.5017 18.6092C81.4188 18.6581 81.3508 18.7419 81.3508 18.7951C81.3508 18.9467 80.6778 19.6749 80.1625 20.3903C75.7837 26.4662 75.5674 28.2535 73.7633 29.096C73.1368 29.3895 73.0243 29.1401 72.9294 29.1621L72.9206 29.1156L72.5891 28.5011C72.5676 28.5127 72.5622 28.4662 72.5777 28.3965C72.5918 28.3268 72.5737 28.1416 72.5366 27.9856C71.8346 25.014 74.9106 21.6903 78.0162 16.227C79.2598 14.0399 79.9179 14.4642 79.8627 13.3349C79.7475 10.9906 74.4633 13.1772 72.6686 12.4025C72.7198 12.2832 74.2605 8.3321 74.6869 8.04595C74.8089 7.96524 74.9045 7.61122 74.8594 7.407C74.7866 7.07437 73.9237 6.56137 73.4326 6.55954C72.9159 6.5577 72.9772 6.24281 72.6902 6.4134C72.4558 6.5522 71.9485 6.48861 71.7518 6.65003C71.1051 7.18198 70.2313 8.92765 70.2657 10.614C70.2691 10.7932 70.0784 11.64 71.6568 12.9613C71.3179 14.0735 66.6252 26.5268 63.3425 27.8872C62.9416 28.0529 62.5772 28.0511 62.6412 27.6579C62.6587 27.5485 62.4492 26.4589 62.6964 26.0248C62.8884 25.6866 62.9989 24.745 63.2326 24.5958C63.4038 24.4864 64.7066 21.5961 64.9249 21.365C65.5352 20.7217 66.9418 17.1674 66.9991 17.0598C67.9058 15.3447 67.788 14.1646 67.9436 13.692C68.302 12.6012 67.1399 12.5535 65.7387 12.5773C65.1566 12.5871 65.2462 12.5737 65.2301 12.8727C65.2139 13.1686 64.8872 13.6119 64.5254 14.1805C62.9524 16.6618 63.1996 17.637 57.8326 21.3717C57.5901 21.5404 57.4324 21.6065 57.745 20.97C57.9073 20.6392 57.8157 20.7309 57.9949 20.5083C58.5547 19.8162 59.9041 16.1206 60.2268 14.7498C60.6364 13.0041 60.9173 13.0836 61.7236 11.9836C62.9241 10.3462 66.7923 5.01075 66.7923 3.04558C66.7923 2.73986 66.9998 2.62981 66.9048 2.46533C66.7802 2.25071 66.8354 1.33049 66.5545 0.972189C66.0809 0.368697 66.801 0.13574 63.6267 0C63.0204 0.596766 60.4396 1.85877 57.9323 7.20338Z" fill="#151515"/>
<path d="M94.1337 8.96503C94.1337 9.10995 94.0057 9.18454 93.8494 9.13135C93.5119 9.01517 94.1337 8.71862 94.1337 8.96503Z" fill="#151515"/>
<path d="M83.0678 9.62026C83.0678 9.6918 82.9492 9.69241 82.9492 9.62026C82.9492 9.54811 83.0678 9.5475 83.0678 9.62026Z" fill="#151515"/>
<path d="M85.9111 14.3121C85.6612 14.5395 85.9637 13.9831 86.0156 14.1329C86.0284 14.1684 85.9819 14.2479 85.9111 14.3121Z" fill="#151515"/>
<path d="M10.1561 26.0998C10.1561 26.7211 11.3411 28.2307 8.77647 31.8046C7.69187 33.3136 7.12599 33.8584 5.83593 34.6337C5.03629 35.1137 3.25918 35.0782 3.03081 34.9156C2.39958 34.4637 2.91358 32.4649 4.04669 30.9663C4.6806 30.1286 9.12206 26.6477 9.15641 26.6477C9.34167 26.6477 10.1561 25.881 10.1561 26.0998ZM20.063 25.6896C19.9653 25.6773 20.1641 25.2071 20.2766 25.1839C20.3716 25.1643 20.5218 25.305 20.6841 25.305C21.0075 25.305 20.5703 25.7513 20.063 25.6896ZM35.0716 24.4991C35.0716 24.5651 35.0331 24.5755 34.9826 24.4991C34.9355 24.4269 35.0716 24.4276 35.0716 24.4991ZM35.0123 24.2576C35.0123 24.3652 34.889 24.3646 34.9328 24.2576C34.9772 24.1463 35.0123 24.1561 35.0123 24.2576ZM34.8971 23.7953C34.8075 23.9427 34.6505 23.9292 34.7698 23.8601C34.8701 23.8014 34.7596 23.7091 34.8526 23.6798C34.9617 23.6449 34.9712 23.6718 34.8971 23.7953ZM34.8937 22.9418C34.8937 23.0072 34.8553 23.0176 34.8048 22.9418C34.7576 22.8696 34.8937 22.8702 34.8937 22.9418ZM38.456 19.5305C38.5389 19.3636 38.6116 19.3581 38.6009 19.5195C38.7268 19.5195 38.3152 19.8124 38.456 19.5305ZM38.9444 18.1554C38.9842 18.2141 38.7996 18.3859 38.7996 18.2196C38.7996 18.1071 38.8845 18.0692 38.9444 18.1554ZM39.1014 17.8546C38.9539 17.9879 39.0994 17.5146 39.1432 17.6962L39.1014 17.8546ZM39.3614 13.3262C39.5312 13.5739 38.9 13.7145 39.125 13.4877C39.1836 13.4283 39.2132 13.38 39.1903 13.38C39.1027 13.38 39.2644 13.185 39.3614 13.3262ZM30.8699 11.5757C30.8699 11.7597 30.3438 11.687 30.5735 11.5537C30.7035 11.4785 30.8699 11.4901 30.8699 11.5757ZM27.4369 11.4895C27.4369 11.8141 26.7788 11.4467 27.2598 11.4467C27.3601 11.4467 27.4369 11.465 27.4369 11.4895ZM30.8282 10.5656C30.9878 10.7111 30.4906 10.6646 30.5479 10.5815L30.8282 10.5656ZM32.4086 10.4201C32.4086 10.5326 32.0569 10.5564 32.1445 10.4256C32.2172 10.3173 32.5278 10.4201 32.4086 10.4201ZM29.3899 10.2972C29.3899 10.3418 28.8866 10.5332 28.7681 10.5332C28.692 10.5332 28.5727 10.5851 28.5101 10.6457C28.3679 10.7839 28.0884 10.7478 28.0884 10.5919C28.0884 10.2849 28.4178 10.5203 28.7041 10.3644C28.9688 10.2201 29.5091 10.2972 29.3899 10.2972ZM33.9768 10.2647C33.9283 10.3381 33.7545 10.3326 33.799 10.2647C33.8475 10.1908 34.0213 10.1969 33.9768 10.2647ZM30.1195 10.1577C30.0838 10.2819 30.077 10.2837 29.9113 10.2054C29.6742 10.0935 30.1814 9.94068 30.1195 10.1577ZM29.0941 10.1039C29.0941 10.1755 28.9756 10.1755 28.9756 10.1039C28.9756 10.0312 29.0941 10.0312 29.0941 10.1039ZM30.5722 9.60378C30.5668 9.85509 30.1073 9.78171 30.236 9.6472C30.3768 9.49923 30.6921 9.60378 30.5722 9.60378ZM30.3957 9.13664C30.3957 9.20879 30.2778 9.20879 30.2778 9.13664C30.2778 9.06449 30.3957 9.06449 30.3957 9.13664ZM28.4649 9.16355C28.5512 9.36716 28.12 9.41485 27.9698 9.48516C27.4127 9.74503 27.224 9.08283 28.1294 9.08283C28.343 9.08283 28.4414 9.10668 28.4649 9.16355ZM37.616 8.33076C37.616 8.45978 37.461 8.76061 37.391 8.7655C36.4586 8.8297 36.2282 8.87433 35.9709 8.78262C35.8503 8.73921 35.5451 8.71291 35.1719 8.71414C31.3967 8.72698 37.616 7.90887 37.616 8.33076ZM16.5815 6.12346C16.9911 7.36163 15.4841 8.83214 11.8396 14.562C11.1302 15.6797 10.2767 17.2902 8.56426 18.828C7.39681 19.8766 8.22542 19.5849 11.8666 9.05654C12.58 6.99293 12.1542 6.1045 9.78359 6.31667C7.20683 6.54657 12.1764 4.44628 13.0562 4.28241C14.8004 3.95835 16.1787 4.90486 16.5815 6.12346ZM12.3455 3.15063C7.93709 3.86602 2.40632 8.03177 0.829272 13.0847C0.71677 13.4455 -0.0424476 15.1 0.0148138 16.2324C0.0794854 17.506 -0.278908 17.5116 0.668936 17.7213C2.18872 18.0563 1.78318 17.7311 2.28505 17.7311C2.56395 17.7311 2.6677 17.3709 2.48581 17.0377C2.38543 16.8555 2.38745 16.7852 2.52353 15.7702C3.0793 11.6289 8.39989 5.88744 6.51633 9.01313C6.27179 9.41974 3.41277 16.1707 2.7034 19.6106C2.38139 21.1753 2.48581 21.4431 2.37735 22.3126C2.11058 24.4398 1.54807 26.4343 3.37302 28.1946C4.47446 29.2573 4.88202 28.0326 5.00126 27.9666C5.0309 27.9501 5.07267 27.8535 5.09356 27.7514C5.15823 27.4389 5.69716 27.3129 6.18826 25.3319C6.89763 22.4703 6.9185 22.3438 8.02533 22.8641C8.95566 23.3007 9.14429 23.6186 9.61788 24.6709C3.28275 29.5863 1.86806 30.7065 1.84179 34.5701C2.56396 35.9061 3.52931 36.3586 3.91869 36.4797C4.45694 36.6472 6.85114 36.5567 7.33955 36.147C7.40422 36.0926 7.49988 36.0474 7.55242 36.0474C7.82256 36.0474 8.56696 35.5105 8.64106 35.5105C8.80072 35.5105 9.70006 34.5915 10.0382 34.454C10.3643 34.3201 10.2222 34.0785 10.724 33.9501C11.2899 33.8058 11.6948 33.0935 11.7783 33.0935C11.8686 33.0935 12.2869 32.6264 12.2869 32.5243C12.2869 32.4277 12.5766 32.2338 12.7248 32.2308C12.937 32.2271 13.9913 30.9529 14.1772 30.3274C14.5828 28.9638 14.5942 29.3649 14.6784 28.8984C14.9661 27.3056 14.2224 25.0555 13.4948 24.2845C13.3075 24.0858 13.3506 23.6932 13.5588 23.6932C13.5871 23.6932 16.077 22.0539 17.2666 21.3697C17.8649 21.0273 17.8702 20.8408 17.5563 22.0283C17.2761 23.0879 17.144 25.5129 18.1667 26.5352C18.3135 26.6813 18.7851 26.9626 19.2048 27.1546C19.4688 27.275 19.5423 27.2842 20.0159 27.2579C21.2008 27.1925 21.0008 27.0421 21.8738 26.2264C24.0188 24.2227 24.551 20.8482 23.9285 24.1231C23.6496 25.5911 23.8726 27.9097 25.1647 28.8501C26.739 29.9959 27.9395 29.4444 28.0587 29.4713C28.2305 29.5105 28.9163 29.3313 28.9163 29.2476C28.9163 29.1399 29.0665 29.0617 29.1413 29.1295C29.2282 29.2078 29.887 28.9094 30.0898 28.6997C30.168 28.619 30.2515 28.5542 30.2778 28.5542C30.4765 28.5542 30.9285 27.969 30.9285 27.7116C30.9285 27.5783 31.0127 27.5875 31.1212 27.733C31.2108 27.8535 31.2135 27.851 31.2559 27.6254C31.2936 27.4212 31.4028 27.2506 31.4028 27.3943C31.4028 27.4854 31.5207 27.478 31.5207 27.3435C31.5207 27.2316 31.6628 26.8807 31.7807 26.9681C31.9498 27.094 32.0124 26.7474 31.8164 26.7938C31.6493 26.833 31.6621 26.6746 31.84 26.5138C31.935 26.4276 31.972 26.3475 31.9525 26.2747C31.91 26.1164 32.1923 25.8394 32.2543 25.5869C32.2765 25.4957 32.3351 25.3894 32.3816 25.3557L32.4678 25.2188C32.4678 25.1148 32.5857 25.176 32.5857 25.058C32.5857 24.7027 33.0593 24.4104 33.0593 23.9995C33.0593 23.747 33.5922 23.2352 33.5922 22.8769C33.5922 22.6898 33.6616 22.6556 33.7101 23.8974C33.7788 25.6608 33.9135 24.8391 33.9203 25.5061C33.9223 25.6621 33.9553 25.8174 33.9944 25.8522L34.0658 26.0191C34.0658 26.4802 35.1861 28.2338 36.3616 28.7553C36.9443 29.0128 37.9259 28.9785 38.2229 28.7884C38.3415 28.7119 41.0671 28.0051 42.3532 24.2038C42.8827 22.6415 44.2711 20.71 44.457 18.9234C44.4671 18.8268 44.5042 18.7045 44.5399 18.6439C44.5763 18.5852 44.5911 18.5149 44.5729 18.4886C44.4981 18.378 44.9744 17.2816 44.6679 17.2615C44.5001 17.2498 43.8305 18.4672 43.8305 18.6201C43.8305 19.1471 41.6526 22.8182 41.5623 23.4352C41.4855 23.9555 41.2073 23.8259 41.1473 23.9995C41.0705 24.2221 40.1274 26.2717 40.0425 26.2717L39.9839 26.3255C39.9839 26.4074 39.5716 26.7969 39.4416 26.9534C38.8676 27.6492 37.7345 27.9012 37.7345 27.7275C37.7345 27.7257 36.6695 26.6703 36.6695 26.3041C36.6695 26.1518 36.8022 26.4074 36.8318 25.4285C36.8473 24.9387 37.3256 22.3652 37.6456 22.4758C37.7985 22.5284 37.6665 22.4165 37.936 21.8937C38.2822 21.2193 38.7612 18.8439 39.059 18.5314C39.1816 18.4024 39.3244 18.0056 39.286 17.9035C39.2496 17.8063 39.4591 17.8723 39.4153 17.769C39.3331 17.5751 39.74 17.2474 39.451 17.2474C39.0206 17.2474 39.9596 16.1022 40.0277 15.6411C40.0465 15.5176 40.0957 15.3954 40.1402 15.3623C40.186 15.3293 40.2197 15.2498 40.2197 15.1795C40.2197 15.0004 40.3989 14.9783 40.3942 14.8145C40.3901 14.6641 40.479 14.3522 40.572 14.1914C40.6373 14.0789 40.6347 14.0661 40.5518 14.0948C40.1388 14.2355 41.1386 12.0716 41.2275 11.7952C41.2975 11.5794 41.3124 11.1703 41.3878 11.0382C41.4767 10.8823 41.5306 10.576 41.4626 10.6133C41.3797 10.6591 41.3885 10.5491 41.4916 10.2433C41.6674 9.72362 41.6465 9.73279 42.6348 9.73585C44.457 9.74135 45.1549 9.83002 46.0017 11.4815C46.1405 11.7512 46.0913 11.5549 46.251 11.5524C46.3716 11.5512 46.5528 11.2045 46.5528 10.974C46.5528 10.7203 46.8236 10.7784 46.5683 10.313C46.3938 9.9951 45.547 9.27361 45.1563 9.11096C42.5485 8.0226 41.6438 8.8835 41.6391 7.99263C41.635 7.19226 41.0631 6.07515 40.6582 6.07515C40.4595 6.07515 39.7097 5.43009 39.5898 5.43009L39.4995 5.37078C39.4591 5.26316 38.1758 5.44415 38.4001 5.68811C38.5901 5.89539 37.911 7.93394 37.7521 8.06601C37.6328 8.16568 36.6183 8.07151 32.2105 8.24516C28.184 8.40291 26.2836 9.21001 26.2055 8.85232C26.1745 8.7123 26.2614 8.86883 26.3894 8.6909C26.4392 8.62119 26.5349 8.56311 26.6083 8.55822C26.7296 8.55027 27.4976 8.22253 25.9488 8.62119C25.6645 8.69395 25.6194 8.72331 25.6457 8.81441C25.6814 8.93792 25.5702 8.95687 25.5183 8.83581C25.4611 8.7019 25.2085 8.81563 23.9453 9.16171C23.273 9.34514 23.3781 9.3433 22.6849 8.91102C22.7469 9.44541 22.7738 9.5194 22.6458 9.54997C22.3245 9.62946 23.339 11.3305 23.8241 11.6692C24.3347 12.0251 24.1117 11.5787 24.4984 11.7126C24.687 11.7775 25.0064 11.7646 24.9781 11.8362C24.9134 11.9988 25.7184 11.731 25.7245 12.0801C25.7292 12.354 25.779 12.0373 25.9785 12.0373C26.2237 12.0373 26.2486 11.8227 26.3988 12.0104C26.4453 12.0691 26.485 12.0868 26.4864 12.0477C26.4898 11.9419 26.6656 11.9676 26.6696 12.0746C26.673 12.1529 26.6838 12.1498 26.7235 12.0587C26.8354 11.808 27.4645 12.104 27.6592 11.8362C27.7327 11.734 27.7805 11.7163 27.9044 11.7444C28.1355 11.797 28.2359 11.7744 28.2359 11.9352C28.2359 12.1596 28.7405 12.0722 28.952 11.9352C29.1238 11.8239 29.1682 11.8141 29.2127 11.8759L29.2363 11.9939C29.1965 12.0514 29.3306 12.0526 29.3306 11.9921C29.3306 11.8838 29.4842 12.0508 29.8459 11.8679C30.0588 11.7609 30.1114 11.7664 30.1343 11.9028C30.1538 12.022 29.8635 11.9603 29.8635 12.0428C29.8635 12.104 30.7015 12.0477 30.752 11.9835L31.3105 11.7768C31.3799 11.7402 31.8164 11.7933 31.8164 11.7285L32.7932 11.484C32.8336 11.4473 32.7326 11.5182 32.5116 11.4198C32.2199 11.2889 32.3607 11.4858 32.1654 11.3929C31.9599 11.2944 31.7551 11.4742 31.7605 11.3042C31.7652 11.1568 32.6827 10.8053 32.802 10.7747C33.0566 10.7105 32.8565 10.5356 33.157 10.5307L33.3254 10.5277C32.7151 10.3014 33.7101 10.1889 33.7101 10.3027C33.7101 10.3705 33.4736 10.4347 33.4736 10.4739C33.4736 10.5332 33.9102 10.4794 33.9553 10.4145C33.9735 10.3883 34.0658 10.3815 34.1601 10.3987C34.3204 10.4292 34.3238 10.4256 34.2194 10.351C33.8421 10.0807 35.566 10.2317 36.0868 10.0287C36.4128 9.90094 36.4896 10.0887 36.5711 10.0147C36.6203 9.97065 36.9329 10.0238 36.8763 10.1467C35.021 14.1621 35.6037 16.9955 33.0209 21.6602C32.1687 23.2004 29.4431 27.8168 27.5494 28.0283C27.1338 28.0748 27.0004 27.98 26.9162 27.5771C26.8926 27.4658 26.6049 26.2338 26.9431 25.8901C26.96 25.8742 27.7973 22.9326 27.8984 22.8152C28.1672 22.5046 29.3953 19.1631 29.5024 19.1031C30.1646 18.7338 30.3835 15.6363 30.1518 14.8145C29.8877 13.8784 29.2578 13.7084 28.2891 13.5677C27.994 13.5243 27.4464 13.6142 27.6047 14.0196C28.0877 15.2578 25.261 18.5632 24.1373 20.5516C22.1911 23.9989 20.7529 25.4676 20.8916 25.3209C20.3769 25.0457 20.3291 25.0946 20.8209 24.1231C20.8768 24.0142 24.6129 16.7943 24.1724 15.7488C23.9979 15.3354 24.0329 14.5192 24.2296 14.4103C24.3071 14.3663 24.1643 14.2275 23.7682 13.9603C23.3296 13.665 23.0494 13.262 22.2288 13.2107C21.8408 13.1862 21.6966 12.9062 21.6966 13.1868C21.6966 14.2141 18.9057 18.4862 18.6429 19.042C18.4159 19.5214 13.0455 22.5125 12.9262 22.5816C11.7379 23.2701 13.1411 22.8341 9.52289 21.6553C8.45985 21.3092 9.84827 21.6412 11.7426 20.2954C12.0202 20.0973 12.2896 19.9335 12.3374 19.9335C12.5752 19.9335 14.2264 18.3217 14.382 18.3217C14.7613 18.3217 15.7354 17.0407 15.9261 16.85C16.2703 16.5057 16.7533 16.436 17.3461 15.8509C20.2914 12.941 20.0071 12.5613 20.2274 10.9361C20.7865 6.815 18.0407 3.15063 12.3455 3.15063Z" fill="#151515"/>
<path d="M66.2714 7.64611C66.0578 7.8803 65.5182 7.57091 65.6644 8.12121C65.8867 8.96194 65.6294 9.04876 66.076 9.86443C66.2114 10.1114 66.3623 10.3187 66.4075 10.3187C66.4964 10.3187 66.7328 10.1151 66.7328 10.0393C66.7328 9.96653 66.8568 10.0589 66.9693 9.86198C67.1317 9.5795 67.2772 9.895 67.3452 9.57705C67.3951 9.34103 67.5844 9.40157 67.9111 9.13987C68.1779 8.92403 68.1859 8.38596 68.0317 8.20742C67.9185 8.07657 67.23 7.74028 67.0764 7.74028L66.9376 7.69198C66.8602 7.62594 66.3697 7.53789 66.2714 7.64611Z" fill="#151515"/>
<path d="M30.4088 7.93888C30.4654 8.22503 30.8278 7.84717 30.5442 7.84717C30.3407 7.84717 30.433 7.93888 30.4088 7.93888Z" fill="#151515"/>
<path d="M29.2628 8.04407C29.1462 8.16941 29.6811 7.99149 29.601 8.11072C29.4238 8.37242 30.7779 7.93951 30.0112 7.91077C29.865 7.90527 29.3389 7.96152 29.2628 8.04407Z" fill="#151515"/>
<path d="M28.8764 8.08926C28.7626 8.36013 29.0994 8.00854 28.9728 8.00854C28.9074 8.00854 28.8838 8.08926 28.8764 8.08926Z" fill="#151515"/>
<path d="M28.4418 8.15913C28.3973 8.22333 28.3697 8.23129 28.3482 8.18604C28.3017 8.08515 28.1009 8.10533 28.0342 8.21844C27.8207 8.57858 28.6217 8.23006 28.6217 8.11083C28.6217 8.02768 28.5125 8.05702 28.4418 8.15913Z" fill="#151515"/>
<path d="M27.526 8.27713C27.4808 8.345 27.6546 8.3505 27.7031 8.27713C27.7489 8.20987 27.5745 8.20375 27.526 8.27713Z" fill="#151515"/>
<path d="M27.0522 8.38469C27.0043 8.45684 27.1229 8.45623 27.1707 8.38469C27.2186 8.31254 27.1 8.31316 27.0522 8.38469Z" fill="#151515"/>
<path d="M92.1689 10.7858C92.272 10.8213 92.3535 10.7461 92.204 10.7534C92.08 10.7596 92.1743 10.7858 92.1689 10.7858Z" fill="#151515"/>
<path d="M33.0293 11.4468C32.8266 11.5293 33.1109 11.5024 33.1472 11.4468C33.189 11.382 33.189 11.382 33.0293 11.4468Z" fill="#151515"/>
<path d="M25.4248 12.1126C25.4248 12.219 25.5434 12.2826 25.5434 12.1768C25.5434 12.0705 25.4248 12.0069 25.4248 12.1126Z" fill="#151515"/>
<path d="M27.9497 12.1182C27.9039 12.2301 28.0885 12.2209 28.0885 12.1182C28.0885 12.0154 27.9928 12.0093 27.9497 12.1182Z" fill="#151515"/>
<path d="M21.9803 61.0181C21.9803 61.1893 21.8617 61.2064 21.8617 60.9857C21.8617 60.7607 21.9803 60.8494 21.9803 61.0181ZM16.985 60.5803C15.0927 72.4955 16.4454 60.4495 16.9662 59.8711C17.1487 59.6674 17.0275 60.3174 16.985 60.5803ZM29.4074 37.2465C30.7257 37.4428 31.3152 37.7406 31.1475 39.5296C30.8093 43.1323 28.372 47.339 25.5487 49.6349C23.9925 50.9 24.2471 50.5136 24.3947 50.0146C24.7942 48.6627 27.5259 39.5351 26.0755 39.0325C25.738 38.9158 25.4173 38.5409 24.9801 38.5146C24.1373 38.4633 24.3057 38.2689 25.7858 37.5822C27.1506 36.9494 29.5273 37.2465 29.4074 37.2465ZM26.7437 36.0206C20.8943 36.7788 15.5077 43.7957 14.7855 47.9626C14.6596 48.6878 14.6542 48.796 14.7424 48.8401C14.7822 48.8596 14.8421 49.0907 14.8785 49.3592C15.0395 50.5588 15.4289 50.7722 16.3168 51.4906C16.9177 51.9767 16.9938 51.9034 17.5711 51.83C17.6055 51.3127 17.6008 51.2883 17.4499 51.0351C17.1898 50.5979 17.5179 50.7508 17.4863 50.2189C17.1285 44.2286 20.1459 42.6474 20.1459 42.0005C20.1459 41.8543 21.2109 40.9537 21.2109 40.7862C21.2109 40.6516 21.5303 40.566 21.6252 40.4291C21.7263 40.2829 20.1021 44.9268 20.0623 45.0357C19.6171 46.2433 15.307 64.7632 15.759 67.3698C16.0756 69.198 17.5651 69.7574 17.3246 69.4114C17.241 69.2909 17.522 69.3343 17.6331 68.8042C17.7012 68.4759 18.0319 67.994 18.1451 68.057C18.1781 68.0748 18.2414 68.0411 18.2872 67.9824C18.4348 67.7904 18.7602 67.722 18.8141 67.4933C18.8565 67.3111 19.3247 66.9026 19.2843 66.7846C19.2075 66.5584 19.7309 66.4386 19.7309 66.0216C19.7309 65.9023 19.838 65.8143 19.9977 65.8008C20.0826 65.7941 20.9341 64.3523 20.9421 64.3193C20.9832 64.1524 21.0924 64.0393 21.0924 64.1634C21.0924 64.2624 21.3127 63.857 21.413 63.5721C21.502 63.322 21.894 61.5684 21.9001 61.5525C21.958 61.41 21.6401 61.5165 21.8974 61.2878C22.018 61.1802 22.0982 60.7344 22.2228 60.2636C21.9843 60.7338 21.9958 60.9894 21.9863 60.6286C21.9769 60.2991 21.83 60.178 21.9324 60.0056C22.1177 59.6925 22.3285 57.9102 22.4478 57.8056C22.5933 57.6784 22.3952 59.1691 22.3703 59.3477C22.0773 61.47 22.8742 57.6968 22.8628 57.5885C22.8331 57.314 24.0565 54.6518 24.1879 52.351C25.1087 52.1369 24.5038 52.4922 25.4126 52.2904C25.9454 52.1712 26.3618 52.0244 26.7916 51.8043C27.1526 51.6191 27.1715 51.6148 27.1978 51.7224C27.2342 51.8704 28.4622 50.9709 28.5815 50.9709C28.8072 50.9709 29.5596 50.192 29.6378 50.192C29.6762 50.192 29.7813 50.1222 29.8648 50.0415C30.2852 49.6368 30.5028 49.7211 30.5028 49.6007L30.5701 49.5469L30.7325 49.4533C30.7857 49.4007 30.9258 49.3121 31.0498 49.2516C31.2364 49.1617 31.7558 48.6034 31.9053 48.6456C32.0677 48.6915 32.7225 47.9101 32.8397 47.9076C32.9408 47.9058 33.3423 47.5884 33.3423 47.5114L33.4251 47.4704C33.5895 47.5279 33.7579 47.0112 33.8913 46.8559C35.529 44.9574 35.5175 39.8788 34.8162 39.8788C34.6424 39.8788 34.9415 39.6538 34.5562 39.2337C34.2685 38.9213 34.1507 38.4052 33.4494 37.8115C30.7621 35.5357 29.1272 36.0206 26.7437 36.0206Z" fill="#151515"/>
<path d="M38.122 42.1161C37.9825 42.1485 38.062 42.39 37.8997 42.5777C37.3843 43.1745 35.6018 45.9566 36.3462 45.871C36.5847 45.8428 36.5982 45.8135 36.7315 45.8655C36.9707 45.9584 37.6625 45.4858 37.6625 45.6906C37.6625 45.7444 37.8579 45.723 37.9064 45.6637C37.9246 45.6411 38.0182 45.6478 38.1072 45.6796C38.378 45.7762 38.8933 45.3995 39.3056 45.2235C39.701 45.0547 39.5589 44.9281 39.6754 44.9281C39.7536 44.9281 39.6842 44.4335 39.5926 44.3369C39.5488 44.2922 39.4996 44.1681 39.4801 44.055C39.4248 43.7401 38.5316 41.9902 38.2432 42.0855L38.122 42.1161Z" fill="#151515"/>
<path d="M44.9839 68.8445C44.9441 68.9344 44.9441 68.6195 44.9839 68.71V68.8445ZM45.3982 68.3712C45.2971 68.4403 45.2971 68.4477 45.3982 68.5003L45.4393 68.5583C45.2297 68.5638 45.2439 68.2881 45.4419 68.296L45.3982 68.3712ZM46.4215 68.1322C46.7233 68.2196 46.183 68.1738 46.1554 68.1328C46.1136 68.0704 46.2086 68.0698 46.4215 68.1322ZM46.0341 68.0735C46.0718 68.1285 45.8899 68.3028 45.9189 68.1487C45.9391 68.0405 45.9533 67.9518 46.0341 68.0735ZM46.6296 68.0252C46.5097 68.1976 46.4167 67.931 46.54 67.9983C46.6175 68.0398 46.5885 67.8919 46.635 67.9341L46.6296 68.0252ZM45.3092 68.0362C45.1698 68.1627 45.2648 67.8705 45.351 67.9457L45.3092 68.0362ZM47.2568 67.8479C47.3922 68.0068 47.1322 67.805 47.1322 67.7781C47.1322 67.7311 47.178 67.7568 47.2568 67.8479ZM50.869 67.7158C50.7423 67.8326 50.8771 67.5935 50.908 67.6198L50.869 67.7158ZM50.7774 67.6088C50.8009 67.6289 50.7598 67.6332 50.683 67.6198C50.2997 67.5531 50.6568 67.5067 50.7774 67.6088ZM47.5283 67.6222C47.5283 67.7243 47.3686 67.7775 47.2864 67.7029C47.2366 67.6583 47.2447 67.6516 47.3161 67.676C47.465 67.7268 47.5283 67.396 47.5283 67.6222ZM49.4024 67.5201C49.3586 67.6265 49.2953 67.5684 49.3505 67.4877C49.4092 67.4027 49.4435 67.4235 49.4024 67.5201ZM47.0729 67.4877C47.0729 67.5586 46.9368 67.5599 46.984 67.4877C47.0352 67.4113 47.0729 67.4223 47.0729 67.4877ZM44.9576 65.6992C44.8586 65.7347 44.6827 65.6723 44.8828 65.6723C44.9657 65.6723 44.9987 65.684 44.9576 65.6992ZM44.0239 42.4626C44.0023 42.4932 43.9154 42.5103 43.838 42.4969C43.3886 42.4223 42.4509 44.8974 42.5412 45.5455C43.33 51.2326 45.3665 45.4636 42.04 53.6294C40.1557 58.2525 35.917 63.6741 35.0527 63.6741C34.821 63.6741 35.3175 61.4381 35.979 60.2366C37.3479 57.7524 38.7666 54.2304 38.4325 51.4545C38.2924 50.2897 38.5517 49.3126 38.1516 48.9458C37.7656 48.5911 36.5974 48.7721 35.8463 48.305C35.2683 47.9454 35.3397 48.2108 35.3491 48.5349C35.3808 49.6342 32.8815 52.8987 31.9492 58.0605C31.3018 61.6503 32.1331 66.1358 35.9231 64.8444C37.424 64.3327 38.7033 61.5286 38.8232 61.4883C38.9 61.462 38.9027 61.4473 38.838 61.41C38.7767 61.3751 38.7821 61.3647 38.8589 61.3647C38.9775 61.3647 39.119 61.1495 39.0536 61.1495C38.9539 61.1495 39.5703 60.5534 39.4847 60.4733C39.4686 60.458 39.5312 60.373 39.6255 60.2819C39.7367 60.1736 42.9898 54.2775 42.9898 53.6135C42.9898 53.5432 44.7467 49.3408 44.8653 49.3732C44.8916 49.3805 45.1792 49.4685 45.5046 49.5688C48.3219 50.4383 49.1909 49.3322 48.4189 50.3857C45.3059 54.637 38.7828 61.9731 40.0035 67.2248C40.025 67.3159 40.0075 67.3746 39.9536 67.3935C39.7798 67.4553 39.6875 68.2826 39.8317 68.4923C40.1887 69.0126 40.347 68.669 40.2446 68.82C40.1948 68.8928 40.6044 69.4755 40.7048 69.4755L40.8408 69.4162C40.9399 69.3269 40.9985 69.4755 40.9183 69.4755L40.886 69.5238C40.9378 69.6009 41.1527 69.5238 41.1541 69.4272C41.1548 69.363 41.1669 69.3581 41.2019 69.4083C41.2275 69.4443 41.3825 69.4914 41.5421 69.5104C42.04 69.5691 42.7823 70.0802 42.7823 69.7653C42.7823 69.4993 43.0545 69.3905 43.4034 69.5152C43.7558 69.6412 43.6783 69.3447 43.9363 69.1423C44.2671 68.8818 44.102 69.2071 44.2974 69.2071L44.321 69.1533C44.2954 69.1141 47.9601 68.3089 48.0787 68.2911C49.0151 68.1481 48.8251 67.8405 49.2562 67.9714C49.5371 68.0564 50.0949 67.8968 51.4227 67.9151C51.7023 67.9188 51.381 67.7567 51.2631 67.7567C51.0758 67.7567 51.195 67.6491 51.1741 67.6491C51.3857 67.6491 53.6936 68.5082 53.796 68.5082C54.2157 68.5082 54.4023 68.8439 54.6806 68.9062C54.8429 68.9417 55.0699 69.1264 55.1508 69.1264C55.2956 69.1264 55.2781 69.4076 55.4532 69.3447C55.4869 69.333 57.0748 70.2068 58.1695 70.5143C63.7501 72.0851 62.8871 71.4871 63.1519 71.6883C63.2967 71.7977 63.806 71.5122 63.9333 71.7152C64.0323 71.8742 64.8899 71.8864 64.8515 71.8283C64.8185 71.7788 64.9748 71.7978 65.1412 71.8632C65.2631 71.9121 66.6866 71.7213 66.3039 71.9488C66.2002 72.0105 66.2595 72.0313 66.4427 71.9249C66.636 71.813 67.237 71.8809 67.4222 71.7904C67.6378 71.6853 67.3939 71.8681 68.0231 71.769C68.2811 71.7293 73.6085 71.2059 74.1689 70.6972L74.2868 70.6947C74.338 70.7705 74.5907 70.7216 74.5913 70.636L74.6365 70.6409C74.6681 70.6874 74.7726 70.6525 75.0029 70.5198C75.2529 70.3768 79.7334 69.3392 79.823 69.1178C79.8675 69.0096 86.0732 66.8188 86.0732 66.5748L86.1857 66.5357C86.4518 66.5186 87.5573 65.9536 87.8194 65.7641C86.0342 66.1144 83.0842 66.9136 83.1556 67.0878C83.2304 67.2713 79.596 68.2954 79.5043 68.4037C79.3177 68.6225 73.3168 69.7953 73.2305 69.8998C73.1894 69.9506 71.0553 70.2019 70.8222 70.2478C69.0323 70.5969 63.1391 70.1181 62.5018 69.7604C62.3947 69.7005 59.8913 69.1594 59.8442 69.1857L59.797 69.1661C59.797 69.042 57.7464 68.5889 54.7958 67.0279C54.2225 66.7246 51.8444 65.8228 51.6174 65.8228C51.5426 65.8228 51.257 65.7738 50.9788 65.7139C48.7941 65.2394 49.7763 65.5072 47.8126 65.503C46.4848 65.5005 46.2052 65.528 45.031 65.6619C45.1503 65.6094 45.735 65.3605 44.8357 65.6112C41.111 66.65 41.3926 67.4895 41.8325 66.0728C41.9901 65.5641 42.7284 64.9123 42.9649 64.4641C44.0838 62.3351 45.2102 62.2409 45.4305 61.4931C45.4682 61.3647 45.5161 61.273 45.5369 61.2865C45.6481 61.3562 46.0482 60.793 46.0994 60.6848C46.218 60.4341 47.24 59.6906 47.0992 59.4791C47.0271 59.3714 47.2575 59.4601 47.4751 59.1165C47.599 58.9214 48.3104 58.2427 48.4014 57.8862C48.4627 57.6472 48.4802 57.8 48.6621 57.4699C48.8918 57.0528 49.0824 57.2149 49.3512 56.7184C49.3782 56.6695 51.8074 53.3212 51.8074 53.232C51.8074 53.0118 52.1193 52.9171 52.3126 52.4426C52.6171 51.693 52.9991 51.1598 53.1359 50.3478C53.2052 49.9357 53.4646 50.2469 53.4646 49.8134C53.4646 49.5413 52.9553 49.065 52.8489 49.0613C52.8132 49.0601 52.7013 49.0051 52.6003 48.9396C52.0324 48.5722 51.7306 48.4169 51.3338 48.2885C50.0215 47.8635 50.6413 48.2145 50.0734 48.2396C49.7163 48.2548 50.1583 48.4199 48.8419 48.4175C47.4427 48.415 45.2196 48.3349 45.7902 47.1781C46.9806 44.7653 47.0749 44.1459 47.2891 43.8537C47.4602 43.6171 47.4912 43.249 47.3551 43.0478C47.1564 42.7525 46.635 42.618 45.5935 42.5923C44.7811 42.5727 45.2998 42.4626 44.0239 42.4626Z" fill="#151515"/>
<path d="M69.6057 61.5177C69.6454 61.5789 69.4595 61.5789 69.4993 61.5177C69.539 61.4572 69.568 61.459 69.6057 61.5177ZM69.0492 61.5257C69.0492 61.5966 68.9132 61.5972 68.9603 61.5257C69.0115 61.4492 69.0492 61.4603 69.0492 61.5257ZM75.9738 51.0945C75.9738 51.1519 75.5575 51.6252 75.5979 51.6588C75.6666 51.7151 75.5541 51.5946 75.123 52.1633C74.547 52.9245 73.9023 53.72 73.9043 53.7854C73.907 53.8845 74.1974 53.5867 74.1981 53.4846L74.287 53.3959C74.3813 53.3648 74.3772 53.1997 74.4345 53.1997C74.6622 53.1997 74.002 53.9756 73.8639 53.9279C73.775 53.8973 72.8959 54.979 72.8959 55.0743L72.8521 55.1337C72.8278 55.1337 72.7409 55.2254 72.6628 55.3324C69.0701 60.2606 70.9483 56.3694 71.1268 56.3694C71.1895 56.3694 71.3087 55.9927 71.3633 55.9927L72.2161 54.8922C72.7119 54.329 72.9437 53.3733 74.6777 51.9866C75.8135 51.0768 75.9738 50.9673 75.9738 51.0945ZM77.7045 46.2439C77.4101 46.4329 73.04 47.144 68.7407 53.0334C67.6346 54.5497 66.9474 56.2538 66.9838 58.9154C66.9959 59.8283 66.9831 59.7708 67.3442 60.4838C67.5207 60.8323 68.0145 61.2572 68.2449 61.2572C68.3682 61.2572 68.6302 61.541 68.7353 61.5043L68.8128 61.5257C68.8128 61.6009 68.996 61.6339 69.1085 61.5783C69.1799 61.5434 69.2217 61.544 69.2359 61.5819C69.2473 61.6131 69.3753 61.6626 69.5174 61.6908C70.1736 61.8228 69.8415 61.5666 70.0469 61.6174L70.2659 61.544C70.3885 61.4333 70.6687 61.4761 70.6061 61.3294C70.5778 61.2634 70.5966 61.2536 70.6977 61.2817C70.7684 61.3007 70.825 61.2945 70.825 61.2676C70.825 61.1918 71.3215 60.9546 71.2683 60.8788C71.1935 60.7705 71.2878 61.0396 71.9783 60.2691C73.6275 58.4287 74.7754 56.3284 74.9674 56.1542C75.4457 55.72 76.0109 53.9811 76.4326 53.4149C77.9005 51.4442 75.9684 53.6289 74.9061 58.3028C74.7606 58.9423 74.7801 60.5492 74.9323 60.4654L74.9256 60.5107C74.671 60.7974 75.3338 63.0653 76.9318 64.1542C79.7382 66.0662 83.5727 64.2264 85.7925 61.7678C87.1694 60.2429 88.1947 57.6271 88.8354 55.7512C89.5704 53.602 89.5737 51.6833 88.5316 49.5958C88.248 49.0272 88.3591 48.8468 87.7508 48.7698C87.0306 48.6787 86.7693 49.2993 86.4843 49.6252C86.0053 50.1718 86.4702 50.7062 86.7491 51.1049C87.7063 52.4745 87.7824 55.1557 87.4577 56.0466C87.4072 56.1854 86.9538 57.8258 86.0727 59.4199C84.9066 61.5293 82.639 63.2872 82.028 63.4982C81.9681 63.5184 81.8387 63.5856 81.7316 63.6516C81.3207 63.906 79.5665 64.0136 78.9979 63.8186C77.6256 63.3496 78.0177 62.0949 78.0655 61.2976C78.0723 61.1875 82.8694 49.6386 82.5239 48.6071C82.3042 47.9504 82.247 48.2274 82.247 48.0697C82.247 47.8532 80.5305 47.1837 79.974 47.1837C79.8056 47.1837 79.654 47.1036 79.1576 46.7502C77.8466 45.8178 77.8298 46.2439 77.7045 46.2439Z" fill="#151515"/>
<path d="M55.974 45.9143C55.7988 46.0622 55.788 46.3624 56.0763 46.8736C56.205 47.1011 56.2683 47.3542 56.3283 47.6037C56.552 48.5263 56.5594 49.2429 57.3496 49.8721C57.9074 50.3154 58.9899 51.0265 59.7903 50.8443C60.0301 50.7899 59.9668 50.8657 58.9569 51.8403C53.6808 56.9343 54.6536 56.4867 54.184 56.9697C52.6811 58.5154 52.6043 60.6011 52.3187 60.8077C51.8579 61.1434 52.6575 62.6005 55.4162 61.6124C57.3799 60.9099 57.2175 61.7928 58.6086 61.912C59.5437 61.9927 60.435 61.7176 61.2252 61.2559C61.3532 61.1813 62.8574 60.6298 63.0333 60.5216C63.4388 60.2709 64.5584 60.2171 65.0792 59.5861C65.2584 59.3672 65.2914 59.0425 65.0367 59.1159C63.8268 59.465 55.9295 60.2134 56.6301 59.3482C56.8336 59.0975 56.9016 59.2718 56.9016 59.1446C56.9016 58.9924 56.9023 59.2437 57.3186 58.886C58.2449 58.0917 59.5194 57.9755 60.8971 56.9569C62.6715 55.6441 61.9345 55.3659 64.8663 53.0119C67.1143 51.2075 67.1911 50.4756 67.85 49.1959C67.627 48.4664 67.4673 48.2084 66.638 47.1818C66.2864 46.7458 65.8896 45.9485 65.2833 45.9485C64.8286 45.9485 64.646 46.2744 64.4372 46.4902C64.0963 46.8418 63.7777 46.7379 62.1481 47.2264C59.8603 47.9124 59.1887 48.0714 58.5831 48.0714C58.0832 48.0714 58.0327 48.014 58.0259 47.4404C58.0165 46.5691 58.1923 46.6614 57.97 46.4597C57.4277 45.9668 56.3404 45.6043 55.974 45.9143Z" fill="#151515"/>
<path d="M46.1136 65.4309C46.2174 65.4669 46.2989 65.3911 46.1493 65.3985C46.0254 65.4046 46.1197 65.4309 46.1136 65.4309Z" fill="#151515"/>
<path d="M45.5191 65.4847C45.6174 65.5201 45.7932 65.4578 45.5932 65.4578C45.5103 65.4578 45.4773 65.4694 45.5191 65.4847Z" fill="#151515"/>
<path d="M82.9066 67.0585C82.7031 67.141 82.9881 67.1141 83.0238 67.0579C83.0662 66.9943 83.0663 66.9943 82.9066 67.0585Z" fill="#151515"/>
</svg>
